%TF.GenerationSoftware,KiCad,Pcbnew,9.0.1*%
%TF.CreationDate,2025-04-30T15:21:50+05:30*%
%TF.ProjectId,APD_Safety_PCB,4150445f-5361-4666-9574-795f5043422e,rev?*%
%TF.SameCoordinates,Original*%
%TF.FileFunction,Legend,Top*%
%TF.FilePolarity,Positive*%
%FSLAX46Y46*%
G04 Gerber Fmt 4.6, Leading zero omitted, Abs format (unit mm)*
G04 Created by KiCad (PCBNEW 9.0.1) date 2025-04-30 15:21:50*
%MOMM*%
%LPD*%
G01*
G04 APERTURE LIST*
%ADD10C,0.125000*%
%ADD11C,0.120000*%
%ADD12C,0.150000*%
%ADD13C,0.100000*%
%ADD14C,0.000000*%
G04 APERTURE END LIST*
D10*
X117565595Y-126461573D02*
X118365595Y-126194906D01*
X118365595Y-126194906D02*
X117565595Y-125928240D01*
X118289404Y-125204430D02*
X118327500Y-125242526D01*
X118327500Y-125242526D02*
X118365595Y-125356811D01*
X118365595Y-125356811D02*
X118365595Y-125433002D01*
X118365595Y-125433002D02*
X118327500Y-125547288D01*
X118327500Y-125547288D02*
X118251309Y-125623478D01*
X118251309Y-125623478D02*
X118175119Y-125661573D01*
X118175119Y-125661573D02*
X118022738Y-125699669D01*
X118022738Y-125699669D02*
X117908452Y-125699669D01*
X117908452Y-125699669D02*
X117756071Y-125661573D01*
X117756071Y-125661573D02*
X117679880Y-125623478D01*
X117679880Y-125623478D02*
X117603690Y-125547288D01*
X117603690Y-125547288D02*
X117565595Y-125433002D01*
X117565595Y-125433002D02*
X117565595Y-125356811D01*
X117565595Y-125356811D02*
X117603690Y-125242526D01*
X117603690Y-125242526D02*
X117641785Y-125204430D01*
X118289404Y-124404430D02*
X118327500Y-124442526D01*
X118327500Y-124442526D02*
X118365595Y-124556811D01*
X118365595Y-124556811D02*
X118365595Y-124633002D01*
X118365595Y-124633002D02*
X118327500Y-124747288D01*
X118327500Y-124747288D02*
X118251309Y-124823478D01*
X118251309Y-124823478D02*
X118175119Y-124861573D01*
X118175119Y-124861573D02*
X118022738Y-124899669D01*
X118022738Y-124899669D02*
X117908452Y-124899669D01*
X117908452Y-124899669D02*
X117756071Y-124861573D01*
X117756071Y-124861573D02*
X117679880Y-124823478D01*
X117679880Y-124823478D02*
X117603690Y-124747288D01*
X117603690Y-124747288D02*
X117565595Y-124633002D01*
X117565595Y-124633002D02*
X117565595Y-124556811D01*
X117565595Y-124556811D02*
X117603690Y-124442526D01*
X117603690Y-124442526D02*
X117641785Y-124404430D01*
X115867500Y-126425383D02*
X115905595Y-126311097D01*
X115905595Y-126311097D02*
X115905595Y-126120621D01*
X115905595Y-126120621D02*
X115867500Y-126044430D01*
X115867500Y-126044430D02*
X115829404Y-126006335D01*
X115829404Y-126006335D02*
X115753214Y-125968240D01*
X115753214Y-125968240D02*
X115677023Y-125968240D01*
X115677023Y-125968240D02*
X115600833Y-126006335D01*
X115600833Y-126006335D02*
X115562738Y-126044430D01*
X115562738Y-126044430D02*
X115524642Y-126120621D01*
X115524642Y-126120621D02*
X115486547Y-126273002D01*
X115486547Y-126273002D02*
X115448452Y-126349192D01*
X115448452Y-126349192D02*
X115410357Y-126387287D01*
X115410357Y-126387287D02*
X115334166Y-126425383D01*
X115334166Y-126425383D02*
X115257976Y-126425383D01*
X115257976Y-126425383D02*
X115181785Y-126387287D01*
X115181785Y-126387287D02*
X115143690Y-126349192D01*
X115143690Y-126349192D02*
X115105595Y-126273002D01*
X115105595Y-126273002D02*
X115105595Y-126082525D01*
X115105595Y-126082525D02*
X115143690Y-125968240D01*
X115829404Y-125168239D02*
X115867500Y-125206335D01*
X115867500Y-125206335D02*
X115905595Y-125320620D01*
X115905595Y-125320620D02*
X115905595Y-125396811D01*
X115905595Y-125396811D02*
X115867500Y-125511097D01*
X115867500Y-125511097D02*
X115791309Y-125587287D01*
X115791309Y-125587287D02*
X115715119Y-125625382D01*
X115715119Y-125625382D02*
X115562738Y-125663478D01*
X115562738Y-125663478D02*
X115448452Y-125663478D01*
X115448452Y-125663478D02*
X115296071Y-125625382D01*
X115296071Y-125625382D02*
X115219880Y-125587287D01*
X115219880Y-125587287D02*
X115143690Y-125511097D01*
X115143690Y-125511097D02*
X115105595Y-125396811D01*
X115105595Y-125396811D02*
X115105595Y-125320620D01*
X115105595Y-125320620D02*
X115143690Y-125206335D01*
X115143690Y-125206335D02*
X115181785Y-125168239D01*
X115905595Y-124825382D02*
X115105595Y-124825382D01*
X115905595Y-124368239D02*
X115448452Y-124711097D01*
X115105595Y-124368239D02*
X115562738Y-124825382D01*
X110845595Y-126407287D02*
X110045595Y-126407287D01*
X110045595Y-126407287D02*
X110617023Y-126140621D01*
X110617023Y-126140621D02*
X110045595Y-125873954D01*
X110045595Y-125873954D02*
X110845595Y-125873954D01*
X110045595Y-125340620D02*
X110045595Y-125188239D01*
X110045595Y-125188239D02*
X110083690Y-125112049D01*
X110083690Y-125112049D02*
X110159880Y-125035858D01*
X110159880Y-125035858D02*
X110312261Y-124997763D01*
X110312261Y-124997763D02*
X110578928Y-124997763D01*
X110578928Y-124997763D02*
X110731309Y-125035858D01*
X110731309Y-125035858D02*
X110807500Y-125112049D01*
X110807500Y-125112049D02*
X110845595Y-125188239D01*
X110845595Y-125188239D02*
X110845595Y-125340620D01*
X110845595Y-125340620D02*
X110807500Y-125416811D01*
X110807500Y-125416811D02*
X110731309Y-125493001D01*
X110731309Y-125493001D02*
X110578928Y-125531097D01*
X110578928Y-125531097D02*
X110312261Y-125531097D01*
X110312261Y-125531097D02*
X110159880Y-125493001D01*
X110159880Y-125493001D02*
X110083690Y-125416811D01*
X110083690Y-125416811D02*
X110045595Y-125340620D01*
X110807500Y-124693002D02*
X110845595Y-124578716D01*
X110845595Y-124578716D02*
X110845595Y-124388240D01*
X110845595Y-124388240D02*
X110807500Y-124312049D01*
X110807500Y-124312049D02*
X110769404Y-124273954D01*
X110769404Y-124273954D02*
X110693214Y-124235859D01*
X110693214Y-124235859D02*
X110617023Y-124235859D01*
X110617023Y-124235859D02*
X110540833Y-124273954D01*
X110540833Y-124273954D02*
X110502738Y-124312049D01*
X110502738Y-124312049D02*
X110464642Y-124388240D01*
X110464642Y-124388240D02*
X110426547Y-124540621D01*
X110426547Y-124540621D02*
X110388452Y-124616811D01*
X110388452Y-124616811D02*
X110350357Y-124654906D01*
X110350357Y-124654906D02*
X110274166Y-124693002D01*
X110274166Y-124693002D02*
X110197976Y-124693002D01*
X110197976Y-124693002D02*
X110121785Y-124654906D01*
X110121785Y-124654906D02*
X110083690Y-124616811D01*
X110083690Y-124616811D02*
X110045595Y-124540621D01*
X110045595Y-124540621D02*
X110045595Y-124350144D01*
X110045595Y-124350144D02*
X110083690Y-124235859D01*
X110845595Y-123893001D02*
X110045595Y-123893001D01*
X103574616Y-114737500D02*
X103688902Y-114775595D01*
X103688902Y-114775595D02*
X103879378Y-114775595D01*
X103879378Y-114775595D02*
X103955569Y-114737500D01*
X103955569Y-114737500D02*
X103993664Y-114699404D01*
X103993664Y-114699404D02*
X104031759Y-114623214D01*
X104031759Y-114623214D02*
X104031759Y-114547023D01*
X104031759Y-114547023D02*
X103993664Y-114470833D01*
X103993664Y-114470833D02*
X103955569Y-114432738D01*
X103955569Y-114432738D02*
X103879378Y-114394642D01*
X103879378Y-114394642D02*
X103726997Y-114356547D01*
X103726997Y-114356547D02*
X103650807Y-114318452D01*
X103650807Y-114318452D02*
X103612712Y-114280357D01*
X103612712Y-114280357D02*
X103574616Y-114204166D01*
X103574616Y-114204166D02*
X103574616Y-114127976D01*
X103574616Y-114127976D02*
X103612712Y-114051785D01*
X103612712Y-114051785D02*
X103650807Y-114013690D01*
X103650807Y-114013690D02*
X103726997Y-113975595D01*
X103726997Y-113975595D02*
X103917474Y-113975595D01*
X103917474Y-113975595D02*
X104031759Y-114013690D01*
X104831760Y-114699404D02*
X104793664Y-114737500D01*
X104793664Y-114737500D02*
X104679379Y-114775595D01*
X104679379Y-114775595D02*
X104603188Y-114775595D01*
X104603188Y-114775595D02*
X104488902Y-114737500D01*
X104488902Y-114737500D02*
X104412712Y-114661309D01*
X104412712Y-114661309D02*
X104374617Y-114585119D01*
X104374617Y-114585119D02*
X104336521Y-114432738D01*
X104336521Y-114432738D02*
X104336521Y-114318452D01*
X104336521Y-114318452D02*
X104374617Y-114166071D01*
X104374617Y-114166071D02*
X104412712Y-114089880D01*
X104412712Y-114089880D02*
X104488902Y-114013690D01*
X104488902Y-114013690D02*
X104603188Y-113975595D01*
X104603188Y-113975595D02*
X104679379Y-113975595D01*
X104679379Y-113975595D02*
X104793664Y-114013690D01*
X104793664Y-114013690D02*
X104831760Y-114051785D01*
X105555569Y-114775595D02*
X105174617Y-114775595D01*
X105174617Y-114775595D02*
X105174617Y-113975595D01*
X103588426Y-118575595D02*
X104045569Y-118575595D01*
X103816997Y-119375595D02*
X103816997Y-118575595D01*
X104236045Y-118575595D02*
X104769379Y-119375595D01*
X104769379Y-118575595D02*
X104236045Y-119375595D01*
X100992712Y-123355595D02*
X100992712Y-122555595D01*
X100992712Y-122555595D02*
X101297474Y-122555595D01*
X101297474Y-122555595D02*
X101373664Y-122593690D01*
X101373664Y-122593690D02*
X101411759Y-122631785D01*
X101411759Y-122631785D02*
X101449855Y-122707976D01*
X101449855Y-122707976D02*
X101449855Y-122822261D01*
X101449855Y-122822261D02*
X101411759Y-122898452D01*
X101411759Y-122898452D02*
X101373664Y-122936547D01*
X101373664Y-122936547D02*
X101297474Y-122974642D01*
X101297474Y-122974642D02*
X100992712Y-122974642D01*
X101716521Y-122555595D02*
X101906997Y-123355595D01*
X101906997Y-123355595D02*
X102059378Y-122784166D01*
X102059378Y-122784166D02*
X102211759Y-123355595D01*
X102211759Y-123355595D02*
X102402236Y-122555595D01*
X102706998Y-123355595D02*
X102706998Y-122555595D01*
X102706998Y-122555595D02*
X102973664Y-123127023D01*
X102973664Y-123127023D02*
X103240331Y-122555595D01*
X103240331Y-122555595D02*
X103240331Y-123355595D01*
X113515595Y-126467287D02*
X112715595Y-126467287D01*
X112715595Y-126467287D02*
X113287023Y-126200621D01*
X113287023Y-126200621D02*
X112715595Y-125933954D01*
X112715595Y-125933954D02*
X113515595Y-125933954D01*
X113515595Y-125553001D02*
X112715595Y-125553001D01*
X113477500Y-125210145D02*
X113515595Y-125095859D01*
X113515595Y-125095859D02*
X113515595Y-124905383D01*
X113515595Y-124905383D02*
X113477500Y-124829192D01*
X113477500Y-124829192D02*
X113439404Y-124791097D01*
X113439404Y-124791097D02*
X113363214Y-124753002D01*
X113363214Y-124753002D02*
X113287023Y-124753002D01*
X113287023Y-124753002D02*
X113210833Y-124791097D01*
X113210833Y-124791097D02*
X113172738Y-124829192D01*
X113172738Y-124829192D02*
X113134642Y-124905383D01*
X113134642Y-124905383D02*
X113096547Y-125057764D01*
X113096547Y-125057764D02*
X113058452Y-125133954D01*
X113058452Y-125133954D02*
X113020357Y-125172049D01*
X113020357Y-125172049D02*
X112944166Y-125210145D01*
X112944166Y-125210145D02*
X112867976Y-125210145D01*
X112867976Y-125210145D02*
X112791785Y-125172049D01*
X112791785Y-125172049D02*
X112753690Y-125133954D01*
X112753690Y-125133954D02*
X112715595Y-125057764D01*
X112715595Y-125057764D02*
X112715595Y-124867287D01*
X112715595Y-124867287D02*
X112753690Y-124753002D01*
X112715595Y-124257763D02*
X112715595Y-124105382D01*
X112715595Y-124105382D02*
X112753690Y-124029192D01*
X112753690Y-124029192D02*
X112829880Y-123953001D01*
X112829880Y-123953001D02*
X112982261Y-123914906D01*
X112982261Y-123914906D02*
X113248928Y-123914906D01*
X113248928Y-123914906D02*
X113401309Y-123953001D01*
X113401309Y-123953001D02*
X113477500Y-124029192D01*
X113477500Y-124029192D02*
X113515595Y-124105382D01*
X113515595Y-124105382D02*
X113515595Y-124257763D01*
X113515595Y-124257763D02*
X113477500Y-124333954D01*
X113477500Y-124333954D02*
X113401309Y-124410144D01*
X113401309Y-124410144D02*
X113248928Y-124448240D01*
X113248928Y-124448240D02*
X112982261Y-124448240D01*
X112982261Y-124448240D02*
X112829880Y-124410144D01*
X112829880Y-124410144D02*
X112753690Y-124333954D01*
X112753690Y-124333954D02*
X112715595Y-124257763D01*
X103558426Y-108105595D02*
X103825093Y-108905595D01*
X103825093Y-108905595D02*
X104091759Y-108105595D01*
X104815569Y-108829404D02*
X104777473Y-108867500D01*
X104777473Y-108867500D02*
X104663188Y-108905595D01*
X104663188Y-108905595D02*
X104586997Y-108905595D01*
X104586997Y-108905595D02*
X104472711Y-108867500D01*
X104472711Y-108867500D02*
X104396521Y-108791309D01*
X104396521Y-108791309D02*
X104358426Y-108715119D01*
X104358426Y-108715119D02*
X104320330Y-108562738D01*
X104320330Y-108562738D02*
X104320330Y-108448452D01*
X104320330Y-108448452D02*
X104358426Y-108296071D01*
X104358426Y-108296071D02*
X104396521Y-108219880D01*
X104396521Y-108219880D02*
X104472711Y-108143690D01*
X104472711Y-108143690D02*
X104586997Y-108105595D01*
X104586997Y-108105595D02*
X104663188Y-108105595D01*
X104663188Y-108105595D02*
X104777473Y-108143690D01*
X104777473Y-108143690D02*
X104815569Y-108181785D01*
X105615569Y-108829404D02*
X105577473Y-108867500D01*
X105577473Y-108867500D02*
X105463188Y-108905595D01*
X105463188Y-108905595D02*
X105386997Y-108905595D01*
X105386997Y-108905595D02*
X105272711Y-108867500D01*
X105272711Y-108867500D02*
X105196521Y-108791309D01*
X105196521Y-108791309D02*
X105158426Y-108715119D01*
X105158426Y-108715119D02*
X105120330Y-108562738D01*
X105120330Y-108562738D02*
X105120330Y-108448452D01*
X105120330Y-108448452D02*
X105158426Y-108296071D01*
X105158426Y-108296071D02*
X105196521Y-108219880D01*
X105196521Y-108219880D02*
X105272711Y-108143690D01*
X105272711Y-108143690D02*
X105386997Y-108105595D01*
X105386997Y-108105595D02*
X105463188Y-108105595D01*
X105463188Y-108105595D02*
X105577473Y-108143690D01*
X105577473Y-108143690D02*
X105615569Y-108181785D01*
X104031759Y-110113690D02*
X103955569Y-110075595D01*
X103955569Y-110075595D02*
X103841283Y-110075595D01*
X103841283Y-110075595D02*
X103726997Y-110113690D01*
X103726997Y-110113690D02*
X103650807Y-110189880D01*
X103650807Y-110189880D02*
X103612712Y-110266071D01*
X103612712Y-110266071D02*
X103574616Y-110418452D01*
X103574616Y-110418452D02*
X103574616Y-110532738D01*
X103574616Y-110532738D02*
X103612712Y-110685119D01*
X103612712Y-110685119D02*
X103650807Y-110761309D01*
X103650807Y-110761309D02*
X103726997Y-110837500D01*
X103726997Y-110837500D02*
X103841283Y-110875595D01*
X103841283Y-110875595D02*
X103917474Y-110875595D01*
X103917474Y-110875595D02*
X104031759Y-110837500D01*
X104031759Y-110837500D02*
X104069855Y-110799404D01*
X104069855Y-110799404D02*
X104069855Y-110532738D01*
X104069855Y-110532738D02*
X103917474Y-110532738D01*
X104412712Y-110875595D02*
X104412712Y-110075595D01*
X104412712Y-110075595D02*
X104869855Y-110875595D01*
X104869855Y-110875595D02*
X104869855Y-110075595D01*
X105250807Y-110875595D02*
X105250807Y-110075595D01*
X105250807Y-110075595D02*
X105441283Y-110075595D01*
X105441283Y-110075595D02*
X105555569Y-110113690D01*
X105555569Y-110113690D02*
X105631759Y-110189880D01*
X105631759Y-110189880D02*
X105669854Y-110266071D01*
X105669854Y-110266071D02*
X105707950Y-110418452D01*
X105707950Y-110418452D02*
X105707950Y-110532738D01*
X105707950Y-110532738D02*
X105669854Y-110685119D01*
X105669854Y-110685119D02*
X105631759Y-110761309D01*
X105631759Y-110761309D02*
X105555569Y-110837500D01*
X105555569Y-110837500D02*
X105441283Y-110875595D01*
X105441283Y-110875595D02*
X105250807Y-110875595D01*
X108475595Y-126050144D02*
X108094642Y-126316811D01*
X108475595Y-126507287D02*
X107675595Y-126507287D01*
X107675595Y-126507287D02*
X107675595Y-126202525D01*
X107675595Y-126202525D02*
X107713690Y-126126335D01*
X107713690Y-126126335D02*
X107751785Y-126088240D01*
X107751785Y-126088240D02*
X107827976Y-126050144D01*
X107827976Y-126050144D02*
X107942261Y-126050144D01*
X107942261Y-126050144D02*
X108018452Y-126088240D01*
X108018452Y-126088240D02*
X108056547Y-126126335D01*
X108056547Y-126126335D02*
X108094642Y-126202525D01*
X108094642Y-126202525D02*
X108094642Y-126507287D01*
X108437500Y-125745383D02*
X108475595Y-125631097D01*
X108475595Y-125631097D02*
X108475595Y-125440621D01*
X108475595Y-125440621D02*
X108437500Y-125364430D01*
X108437500Y-125364430D02*
X108399404Y-125326335D01*
X108399404Y-125326335D02*
X108323214Y-125288240D01*
X108323214Y-125288240D02*
X108247023Y-125288240D01*
X108247023Y-125288240D02*
X108170833Y-125326335D01*
X108170833Y-125326335D02*
X108132738Y-125364430D01*
X108132738Y-125364430D02*
X108094642Y-125440621D01*
X108094642Y-125440621D02*
X108056547Y-125593002D01*
X108056547Y-125593002D02*
X108018452Y-125669192D01*
X108018452Y-125669192D02*
X107980357Y-125707287D01*
X107980357Y-125707287D02*
X107904166Y-125745383D01*
X107904166Y-125745383D02*
X107827976Y-125745383D01*
X107827976Y-125745383D02*
X107751785Y-125707287D01*
X107751785Y-125707287D02*
X107713690Y-125669192D01*
X107713690Y-125669192D02*
X107675595Y-125593002D01*
X107675595Y-125593002D02*
X107675595Y-125402525D01*
X107675595Y-125402525D02*
X107713690Y-125288240D01*
X107675595Y-125059668D02*
X107675595Y-124602525D01*
X108475595Y-124831097D02*
X107675595Y-124831097D01*
X122126119Y-128776811D02*
X122102309Y-128824430D01*
X122102309Y-128824430D02*
X122102309Y-128895859D01*
X122102309Y-128895859D02*
X122126119Y-128967287D01*
X122126119Y-128967287D02*
X122173738Y-129014906D01*
X122173738Y-129014906D02*
X122221357Y-129038716D01*
X122221357Y-129038716D02*
X122316595Y-129062525D01*
X122316595Y-129062525D02*
X122388023Y-129062525D01*
X122388023Y-129062525D02*
X122483261Y-129038716D01*
X122483261Y-129038716D02*
X122530880Y-129014906D01*
X122530880Y-129014906D02*
X122578500Y-128967287D01*
X122578500Y-128967287D02*
X122602309Y-128895859D01*
X122602309Y-128895859D02*
X122602309Y-128848240D01*
X122602309Y-128848240D02*
X122578500Y-128776811D01*
X122578500Y-128776811D02*
X122554690Y-128753002D01*
X122554690Y-128753002D02*
X122388023Y-128753002D01*
X122388023Y-128753002D02*
X122388023Y-128848240D01*
X122602309Y-128538716D02*
X122102309Y-128538716D01*
X122102309Y-128538716D02*
X122602309Y-128253002D01*
X122602309Y-128253002D02*
X122102309Y-128253002D01*
X122602309Y-128014906D02*
X122102309Y-128014906D01*
X122102309Y-128014906D02*
X122102309Y-127895858D01*
X122102309Y-127895858D02*
X122126119Y-127824430D01*
X122126119Y-127824430D02*
X122173738Y-127776811D01*
X122173738Y-127776811D02*
X122221357Y-127753001D01*
X122221357Y-127753001D02*
X122316595Y-127729192D01*
X122316595Y-127729192D02*
X122388023Y-127729192D01*
X122388023Y-127729192D02*
X122483261Y-127753001D01*
X122483261Y-127753001D02*
X122530880Y-127776811D01*
X122530880Y-127776811D02*
X122578500Y-127824430D01*
X122578500Y-127824430D02*
X122602309Y-127895858D01*
X122602309Y-127895858D02*
X122602309Y-128014906D01*
X104049855Y-117275595D02*
X103783188Y-116894642D01*
X103592712Y-117275595D02*
X103592712Y-116475595D01*
X103592712Y-116475595D02*
X103897474Y-116475595D01*
X103897474Y-116475595D02*
X103973664Y-116513690D01*
X103973664Y-116513690D02*
X104011759Y-116551785D01*
X104011759Y-116551785D02*
X104049855Y-116627976D01*
X104049855Y-116627976D02*
X104049855Y-116742261D01*
X104049855Y-116742261D02*
X104011759Y-116818452D01*
X104011759Y-116818452D02*
X103973664Y-116856547D01*
X103973664Y-116856547D02*
X103897474Y-116894642D01*
X103897474Y-116894642D02*
X103592712Y-116894642D01*
X104316521Y-116475595D02*
X104849855Y-117275595D01*
X104849855Y-116475595D02*
X104316521Y-117275595D01*
X103574616Y-112737500D02*
X103688902Y-112775595D01*
X103688902Y-112775595D02*
X103879378Y-112775595D01*
X103879378Y-112775595D02*
X103955569Y-112737500D01*
X103955569Y-112737500D02*
X103993664Y-112699404D01*
X103993664Y-112699404D02*
X104031759Y-112623214D01*
X104031759Y-112623214D02*
X104031759Y-112547023D01*
X104031759Y-112547023D02*
X103993664Y-112470833D01*
X103993664Y-112470833D02*
X103955569Y-112432738D01*
X103955569Y-112432738D02*
X103879378Y-112394642D01*
X103879378Y-112394642D02*
X103726997Y-112356547D01*
X103726997Y-112356547D02*
X103650807Y-112318452D01*
X103650807Y-112318452D02*
X103612712Y-112280357D01*
X103612712Y-112280357D02*
X103574616Y-112204166D01*
X103574616Y-112204166D02*
X103574616Y-112127976D01*
X103574616Y-112127976D02*
X103612712Y-112051785D01*
X103612712Y-112051785D02*
X103650807Y-112013690D01*
X103650807Y-112013690D02*
X103726997Y-111975595D01*
X103726997Y-111975595D02*
X103917474Y-111975595D01*
X103917474Y-111975595D02*
X104031759Y-112013690D01*
X104374617Y-112775595D02*
X104374617Y-111975595D01*
X104374617Y-111975595D02*
X104565093Y-111975595D01*
X104565093Y-111975595D02*
X104679379Y-112013690D01*
X104679379Y-112013690D02*
X104755569Y-112089880D01*
X104755569Y-112089880D02*
X104793664Y-112166071D01*
X104793664Y-112166071D02*
X104831760Y-112318452D01*
X104831760Y-112318452D02*
X104831760Y-112432738D01*
X104831760Y-112432738D02*
X104793664Y-112585119D01*
X104793664Y-112585119D02*
X104755569Y-112661309D01*
X104755569Y-112661309D02*
X104679379Y-112737500D01*
X104679379Y-112737500D02*
X104565093Y-112775595D01*
X104565093Y-112775595D02*
X104374617Y-112775595D01*
X105136521Y-112547023D02*
X105517474Y-112547023D01*
X105060331Y-112775595D02*
X105326998Y-111975595D01*
X105326998Y-111975595D02*
X105593664Y-112775595D01*
D11*
%TO.C,L1*%
X122805000Y-117545000D02*
X122805000Y-112445000D01*
X127905000Y-117545000D02*
X127905000Y-112445000D01*
%TO.C,C5*%
X106875835Y-116590000D02*
X106644165Y-116590000D01*
X106875835Y-117310000D02*
X106644165Y-117310000D01*
D12*
%TO.C,U2*%
X110165000Y-114885000D02*
X110165000Y-115110000D01*
X110165000Y-114885000D02*
X110490000Y-114885000D01*
X110165000Y-122135000D02*
X110165000Y-121810000D01*
X110165000Y-122135000D02*
X110490000Y-122135000D01*
X117415000Y-114885000D02*
X117090000Y-114885000D01*
X117415000Y-114885000D02*
X117415000Y-115210000D01*
X117415000Y-122135000D02*
X117090000Y-122135000D01*
X117415000Y-122135000D02*
X117415000Y-121810000D01*
D11*
X109400000Y-115170000D02*
X109060000Y-114700000D01*
X109740000Y-114700000D01*
X109400000Y-115170000D01*
G36*
X109400000Y-115170000D02*
G01*
X109060000Y-114700000D01*
X109740000Y-114700000D01*
X109400000Y-115170000D01*
G37*
%TO.C,C6*%
X119300000Y-118378335D02*
X119300000Y-118146665D01*
X120020000Y-118378335D02*
X120020000Y-118146665D01*
%TO.C,TP3*%
X125100000Y-127400000D02*
X126500000Y-127400000D01*
X125100000Y-128800000D02*
X125100000Y-127400000D01*
X126500000Y-127400000D02*
X126500000Y-128800000D01*
X126500000Y-128800000D02*
X125100000Y-128800000D01*
%TO.C,TP4*%
X122800000Y-127390000D02*
X124200000Y-127390000D01*
X122800000Y-128790000D02*
X122800000Y-127390000D01*
X124200000Y-127390000D02*
X124200000Y-128790000D01*
X124200000Y-128790000D02*
X122800000Y-128790000D01*
%TO.C,C3*%
X127130000Y-127283733D02*
X127130000Y-127576267D01*
X128150000Y-127283733D02*
X128150000Y-127576267D01*
%TO.C,C10*%
X111130000Y-111486267D02*
X111130000Y-111193733D01*
X112150000Y-111486267D02*
X112150000Y-111193733D01*
%TO.C,C12*%
X107465835Y-122710000D02*
X107234165Y-122710000D01*
X107465835Y-123430000D02*
X107234165Y-123430000D01*
%TO.C,C7*%
X106893335Y-115570000D02*
X106661665Y-115570000D01*
X106893335Y-116290000D02*
X106661665Y-116290000D01*
%TO.C,C1*%
X122611252Y-110180000D02*
X122088748Y-110180000D01*
X122611252Y-111650000D02*
X122088748Y-111650000D01*
%TO.C,U1*%
X126500000Y-119132500D02*
X125700000Y-119132500D01*
X126500000Y-119132500D02*
X127300000Y-119132500D01*
X126500000Y-122252500D02*
X125700000Y-122252500D01*
X126500000Y-122252500D02*
X127300000Y-122252500D01*
X125200000Y-119182500D02*
X124960000Y-118852500D01*
X125440000Y-118852500D01*
X125200000Y-119182500D01*
G36*
X125200000Y-119182500D02*
G01*
X124960000Y-118852500D01*
X125440000Y-118852500D01*
X125200000Y-119182500D01*
G37*
%TO.C,F1*%
X113178578Y-103280000D02*
X112661422Y-103280000D01*
X113178578Y-104700000D02*
X112661422Y-104700000D01*
%TO.C,D4*%
X101305000Y-125212500D02*
X101305000Y-127672500D01*
X102775000Y-125212500D02*
X101305000Y-125212500D01*
X102775000Y-127672500D02*
X102775000Y-125212500D01*
%TO.C,Q2*%
X117070000Y-107540000D02*
X117070000Y-109390000D01*
X117070000Y-107540000D02*
X117960000Y-107540000D01*
X119300000Y-107555000D02*
X120190000Y-107555000D01*
X120190000Y-107555000D02*
X120190000Y-109405000D01*
X117060000Y-109780000D02*
X116730000Y-110020000D01*
X116730000Y-109540000D01*
X117060000Y-109780000D01*
G36*
X117060000Y-109780000D02*
G01*
X116730000Y-110020000D01*
X116730000Y-109540000D01*
X117060000Y-109780000D01*
G37*
%TO.C,C11*%
X106676665Y-117630000D02*
X106908335Y-117630000D01*
X106676665Y-118350000D02*
X106908335Y-118350000D01*
%TO.C,J1*%
X101430000Y-107790000D02*
X102830000Y-107790000D01*
X101430000Y-109190000D02*
X101430000Y-107790000D01*
X101430000Y-109840000D02*
X102830000Y-109840000D01*
X101430000Y-111240000D02*
X101430000Y-109840000D01*
X101430000Y-111790000D02*
X102830000Y-111790000D01*
X101430000Y-113190000D02*
X101430000Y-111790000D01*
X101430000Y-113790000D02*
X102830000Y-113790000D01*
X101430000Y-115190000D02*
X101430000Y-113790000D01*
X102830000Y-107790000D02*
X102830000Y-109190000D01*
X102830000Y-109190000D02*
X101430000Y-109190000D01*
X102830000Y-109840000D02*
X102830000Y-111240000D01*
X102830000Y-111240000D02*
X101430000Y-111240000D01*
X102830000Y-111790000D02*
X102830000Y-113190000D01*
X102830000Y-113190000D02*
X101430000Y-113190000D01*
X102830000Y-113790000D02*
X102830000Y-115190000D01*
X102830000Y-115190000D02*
X101430000Y-115190000D01*
D13*
X103380000Y-115740000D02*
X100880000Y-115740000D01*
X100880000Y-107240000D01*
X103380000Y-107240000D01*
X103380000Y-115740000D01*
D11*
%TO.C,C9*%
X121848748Y-120685000D02*
X122371252Y-120685000D01*
X121848748Y-122155000D02*
X122371252Y-122155000D01*
%TO.C,R11*%
X119325000Y-123182379D02*
X119325000Y-123517621D01*
X120085000Y-123182379D02*
X120085000Y-123517621D01*
%TO.C,F2*%
X115080000Y-106521422D02*
X115080000Y-107038578D01*
X116500000Y-106521422D02*
X116500000Y-107038578D01*
%TO.C,R8*%
X112520000Y-111732379D02*
X112520000Y-112067621D01*
X113280000Y-111732379D02*
X113280000Y-112067621D01*
%TO.C,R9*%
X117839879Y-105440000D02*
X118175121Y-105440000D01*
X117839879Y-106200000D02*
X118175121Y-106200000D01*
%TO.C,R4*%
X116710000Y-111722379D02*
X116710000Y-112057621D01*
X117470000Y-111722379D02*
X117470000Y-112057621D01*
%TO.C,R10*%
X105027621Y-127240000D02*
X104692379Y-127240000D01*
X105027621Y-128000000D02*
X104692379Y-128000000D01*
%TO.C,J4*%
D13*
X106820000Y-100310000D02*
X123140000Y-100310000D01*
X123140000Y-105290000D01*
X106820000Y-105290000D01*
X106820000Y-100310000D01*
D11*
%TO.C,D5*%
X120280000Y-126015000D02*
X122740000Y-126015000D01*
X122740000Y-124545000D02*
X120280000Y-124545000D01*
X122740000Y-126015000D02*
X122740000Y-124545000D01*
%TO.C,R2*%
X113462379Y-109770000D02*
X113797621Y-109770000D01*
X113462379Y-110530000D02*
X113797621Y-110530000D01*
%TO.C,J2*%
X101420000Y-116385000D02*
X102820000Y-116385000D01*
X101420000Y-117785000D02*
X101420000Y-116385000D01*
X101420000Y-118435000D02*
X102820000Y-118435000D01*
X101420000Y-119835000D02*
X101420000Y-118435000D01*
X101420000Y-120385000D02*
X102820000Y-120385000D01*
X101420000Y-121785000D02*
X101420000Y-120385000D01*
X102820000Y-116385000D02*
X102820000Y-117785000D01*
X102820000Y-117785000D02*
X101420000Y-117785000D01*
X102820000Y-118435000D02*
X102820000Y-119835000D01*
X102820000Y-119835000D02*
X101420000Y-119835000D01*
X102820000Y-120385000D02*
X102820000Y-121785000D01*
X102820000Y-121785000D02*
X101420000Y-121785000D01*
D13*
X103370000Y-122365000D02*
X100870000Y-122365000D01*
X100870000Y-115835000D01*
X103370000Y-115835000D01*
X103370000Y-122365000D01*
D11*
%TO.C,Q1*%
X111585000Y-109315000D02*
X111585000Y-108425000D01*
X111585000Y-109315000D02*
X113435000Y-109315000D01*
X111600000Y-106195000D02*
X113450000Y-106195000D01*
X111600000Y-107085000D02*
X111600000Y-106195000D01*
X114065000Y-109655000D02*
X113585000Y-109655000D01*
X113825000Y-109325000D01*
X114065000Y-109655000D01*
G36*
X114065000Y-109655000D02*
G01*
X113585000Y-109655000D01*
X113825000Y-109325000D01*
X114065000Y-109655000D01*
G37*
%TO.C,R12*%
X114550000Y-111722379D02*
X114550000Y-112057621D01*
X115310000Y-111722379D02*
X115310000Y-112057621D01*
%TO.C,R5*%
X115620000Y-111732379D02*
X115620000Y-112067621D01*
X116380000Y-111732379D02*
X116380000Y-112067621D01*
%TO.C,R13*%
X113540000Y-111732379D02*
X113540000Y-112067621D01*
X114300000Y-111732379D02*
X114300000Y-112067621D01*
%TO.C,D1*%
X120560000Y-107227500D02*
X120560000Y-109687500D01*
X120560000Y-109687500D02*
X122030000Y-109687500D01*
X122030000Y-109687500D02*
X122030000Y-107227500D01*
%TO.C,Y1*%
X105150000Y-122490000D02*
X108350000Y-122490000D01*
X108350000Y-122490000D02*
X108350000Y-118590000D01*
%TO.C,C4*%
X124154165Y-118095000D02*
X124385835Y-118095000D01*
X124154165Y-118815000D02*
X124385835Y-118815000D01*
%TO.C,R3*%
X118622379Y-110910000D02*
X118957621Y-110910000D01*
X118622379Y-111670000D02*
X118957621Y-111670000D01*
%TO.C,J3*%
X106590000Y-129280000D02*
X106590000Y-127950000D01*
X107920000Y-129280000D02*
X106590000Y-129280000D01*
X109190000Y-126620000D02*
X121950000Y-126620000D01*
X109190000Y-129280000D02*
X109190000Y-126620000D01*
X109190000Y-129280000D02*
X121950000Y-129280000D01*
X121950000Y-129280000D02*
X121950000Y-126620000D01*
%TO.C,R1*%
X117977621Y-102410000D02*
X117642379Y-102410000D01*
X117977621Y-103170000D02*
X117642379Y-103170000D01*
%TO.C,C2*%
X128190000Y-124276267D02*
X128190000Y-123983733D01*
X129210000Y-124276267D02*
X129210000Y-123983733D01*
%TO.C,R6*%
X121312379Y-122550000D02*
X121647621Y-122550000D01*
X121312379Y-123310000D02*
X121647621Y-123310000D01*
D14*
%TO.C,G\u002A\u002A\u002A*%
G36*
X127696867Y-109162810D02*
G01*
X127716750Y-109290486D01*
X127721630Y-109414393D01*
X127712631Y-109579273D01*
X127689417Y-109688632D01*
X127666889Y-109715470D01*
X127636910Y-109665976D01*
X127617027Y-109538299D01*
X127612147Y-109414393D01*
X127621146Y-109249512D01*
X127644360Y-109140154D01*
X127666889Y-109113315D01*
X127696867Y-109162810D01*
G37*
G36*
X124561451Y-109130618D02*
G01*
X124605545Y-109142361D01*
X124587686Y-109151050D01*
X124527330Y-109192634D01*
X124498319Y-109293772D01*
X124491889Y-109445777D01*
X124481904Y-109600591D01*
X124456411Y-109698131D01*
X124437147Y-109715470D01*
X124405724Y-109666279D01*
X124385925Y-109540685D01*
X124382406Y-109445777D01*
X124373237Y-109273465D01*
X124340005Y-109183108D01*
X124286609Y-109151050D01*
X124276711Y-109136627D01*
X124357635Y-109127579D01*
X124437147Y-109126015D01*
X124561451Y-109130618D01*
G37*
G36*
X127408002Y-109130618D02*
G01*
X127452097Y-109142361D01*
X127434238Y-109151050D01*
X127373882Y-109192634D01*
X127344871Y-109293772D01*
X127338440Y-109445777D01*
X127328456Y-109600591D01*
X127302963Y-109698131D01*
X127283699Y-109715470D01*
X127252276Y-109666279D01*
X127232477Y-109540685D01*
X127228958Y-109445777D01*
X127219789Y-109273465D01*
X127186557Y-109183108D01*
X127133160Y-109151050D01*
X127123263Y-109136627D01*
X127204186Y-109127579D01*
X127283699Y-109126015D01*
X127408002Y-109130618D01*
G37*
G36*
X122616996Y-109121517D02*
G01*
X122733461Y-109128653D01*
X122745956Y-109138533D01*
X122671738Y-109152524D01*
X122556293Y-109203804D01*
X122517900Y-109287461D01*
X122560478Y-109367595D01*
X122644367Y-109403131D01*
X122767535Y-109426854D01*
X122644367Y-109434309D01*
X122548423Y-109469311D01*
X122521205Y-109576077D01*
X122521199Y-109578617D01*
X122502460Y-109681493D01*
X122466458Y-109715470D01*
X122436479Y-109665976D01*
X122416596Y-109538299D01*
X122411716Y-109414393D01*
X122411716Y-109113315D01*
X122616996Y-109121517D01*
G37*
G36*
X125463548Y-109121517D02*
G01*
X125580013Y-109128653D01*
X125592508Y-109138533D01*
X125518290Y-109152524D01*
X125402845Y-109203804D01*
X125364452Y-109287461D01*
X125407030Y-109367595D01*
X125490919Y-109403131D01*
X125614087Y-109426854D01*
X125490919Y-109434309D01*
X125387985Y-109473722D01*
X125362318Y-109551021D01*
X125409905Y-109630741D01*
X125518290Y-109676262D01*
X125595525Y-109691347D01*
X125573800Y-109700848D01*
X125463548Y-109707268D01*
X125258268Y-109715470D01*
X125258268Y-109113315D01*
X125463548Y-109121517D01*
G37*
G36*
X126437769Y-109174534D02*
G01*
X126458992Y-109310759D01*
X126462578Y-109414393D01*
X126449872Y-109606834D01*
X126414277Y-109701156D01*
X126359578Y-109693789D01*
X126289560Y-109581166D01*
X126288394Y-109578617D01*
X126227781Y-109478144D01*
X126180085Y-109441763D01*
X126145525Y-109488660D01*
X126134130Y-109578617D01*
X126115391Y-109681493D01*
X126079389Y-109715470D01*
X126049410Y-109665976D01*
X126029527Y-109538299D01*
X126024647Y-109414393D01*
X126040040Y-109218605D01*
X126082736Y-109120452D01*
X126147508Y-109123486D01*
X126229133Y-109231259D01*
X126246108Y-109263854D01*
X126320918Y-109414393D01*
X126340643Y-109263854D01*
X126369760Y-109140176D01*
X126405080Y-109114038D01*
X126437769Y-109174534D01*
G37*
G36*
X128846389Y-109174534D02*
G01*
X128867613Y-109310759D01*
X128871199Y-109414393D01*
X128858493Y-109606834D01*
X128822898Y-109701156D01*
X128768199Y-109693789D01*
X128698180Y-109581166D01*
X128697014Y-109578617D01*
X128636402Y-109478144D01*
X128588705Y-109441763D01*
X128554145Y-109488660D01*
X128542751Y-109578617D01*
X128524012Y-109681493D01*
X128488009Y-109715470D01*
X128458031Y-109665976D01*
X128438148Y-109538299D01*
X128433268Y-109414393D01*
X128448661Y-109218605D01*
X128491356Y-109120452D01*
X128556129Y-109123486D01*
X128637754Y-109231259D01*
X128654728Y-109263854D01*
X128729538Y-109414393D01*
X128749263Y-109263854D01*
X128778381Y-109140176D01*
X128813701Y-109114038D01*
X128846389Y-109174534D01*
G37*
G36*
X122619933Y-107312704D02*
G01*
X122650245Y-107341685D01*
X122669412Y-107410920D01*
X122679972Y-107537538D01*
X122684463Y-107738667D01*
X122685422Y-108031433D01*
X122685423Y-108045858D01*
X122684556Y-108342811D01*
X122680262Y-108547412D01*
X122670005Y-108676789D01*
X122651247Y-108748072D01*
X122621450Y-108778386D01*
X122578077Y-108784862D01*
X122575940Y-108784867D01*
X122531947Y-108779013D01*
X122501636Y-108750032D01*
X122482469Y-108680797D01*
X122471909Y-108554178D01*
X122467418Y-108353050D01*
X122466458Y-108060283D01*
X122466458Y-108045858D01*
X122467325Y-107748906D01*
X122471618Y-107544305D01*
X122481875Y-107414927D01*
X122500634Y-107343645D01*
X122530431Y-107313330D01*
X122573803Y-107306855D01*
X122575940Y-107306850D01*
X122619933Y-107312704D01*
G37*
G36*
X125116192Y-109140345D02*
G01*
X125141686Y-109235192D01*
X125148785Y-109414393D01*
X125141413Y-109595961D01*
X125115546Y-109689439D01*
X125066673Y-109715470D01*
X125000632Y-109667884D01*
X124984561Y-109578617D01*
X124956009Y-109468549D01*
X124902449Y-109441763D01*
X124836408Y-109489350D01*
X124820337Y-109578617D01*
X124801598Y-109681493D01*
X124765596Y-109715470D01*
X124735617Y-109665976D01*
X124715734Y-109538299D01*
X124710854Y-109414393D01*
X124719853Y-109249512D01*
X124743067Y-109140154D01*
X124765596Y-109113315D01*
X124806746Y-109160162D01*
X124820337Y-109250169D01*
X124848889Y-109360237D01*
X124902449Y-109387022D01*
X124968490Y-109339435D01*
X124984561Y-109250169D01*
X125013113Y-109140101D01*
X125066673Y-109113315D01*
X125116192Y-109140345D01*
G37*
G36*
X123168238Y-109132563D02*
G01*
X123239744Y-109177358D01*
X123279310Y-109305101D01*
X123282072Y-109466338D01*
X123250123Y-109605704D01*
X123221889Y-109649781D01*
X123114946Y-109704401D01*
X122987486Y-109709622D01*
X122890066Y-109666985D01*
X122871652Y-109639115D01*
X122856707Y-109536908D01*
X122856921Y-109494764D01*
X122961451Y-109494764D01*
X122980700Y-109583241D01*
X123039882Y-109655621D01*
X123106725Y-109630681D01*
X123154530Y-109528205D01*
X123173970Y-109355472D01*
X123140666Y-109236293D01*
X123067863Y-109195427D01*
X123006861Y-109242754D01*
X122968228Y-109356601D01*
X122961451Y-109494764D01*
X122856921Y-109494764D01*
X122857487Y-109383033D01*
X122859685Y-109351723D01*
X122881127Y-109211842D01*
X122932090Y-109146849D01*
X123035302Y-109122617D01*
X123168238Y-109132563D01*
G37*
G36*
X128204445Y-109132563D02*
G01*
X128275951Y-109177358D01*
X128315517Y-109305101D01*
X128318279Y-109466338D01*
X128286329Y-109605704D01*
X128258096Y-109649781D01*
X128151153Y-109704401D01*
X128023693Y-109709622D01*
X127926273Y-109666985D01*
X127907859Y-109639115D01*
X127892914Y-109536908D01*
X127893128Y-109494764D01*
X127997658Y-109494764D01*
X128016907Y-109583241D01*
X128076089Y-109655621D01*
X128142932Y-109630681D01*
X128190737Y-109528205D01*
X128210177Y-109355472D01*
X128176873Y-109236293D01*
X128104070Y-109195427D01*
X128043068Y-109242754D01*
X128004435Y-109356601D01*
X127997658Y-109494764D01*
X127893128Y-109494764D01*
X127893694Y-109383033D01*
X127895892Y-109351723D01*
X127917334Y-109211842D01*
X127968297Y-109146849D01*
X128071509Y-109122617D01*
X128204445Y-109132563D01*
G37*
G36*
X126845025Y-109188683D02*
G01*
X126906672Y-109311356D01*
X126939172Y-109406489D01*
X126977820Y-109574759D01*
X126983607Y-109685061D01*
X126959418Y-109722183D01*
X126908132Y-109670911D01*
X126893683Y-109646588D01*
X126816425Y-109569518D01*
X126732951Y-109556759D01*
X126683754Y-109610836D01*
X126681544Y-109633358D01*
X126651985Y-109706206D01*
X126626802Y-109715470D01*
X126582427Y-109670545D01*
X126576226Y-109619673D01*
X126601719Y-109473559D01*
X126623826Y-109411162D01*
X126736285Y-109411162D01*
X126764866Y-109486060D01*
X126791027Y-109496505D01*
X126844201Y-109457215D01*
X126845768Y-109444994D01*
X126805977Y-109370856D01*
X126791027Y-109359651D01*
X126744162Y-109372061D01*
X126736285Y-109411162D01*
X126623826Y-109411162D01*
X126655909Y-109320606D01*
X126722376Y-109197578D01*
X126784698Y-109141237D01*
X126790175Y-109140686D01*
X126845025Y-109188683D01*
G37*
G36*
X123752126Y-109142365D02*
G01*
X123823253Y-109224622D01*
X123797974Y-109352745D01*
X123790294Y-109367131D01*
X123765541Y-109507823D01*
X123784359Y-109589421D01*
X123803631Y-109690140D01*
X123770891Y-109713884D01*
X123709872Y-109662727D01*
X123660808Y-109578617D01*
X123600195Y-109478144D01*
X123552498Y-109441763D01*
X123517939Y-109488660D01*
X123506544Y-109578617D01*
X123487805Y-109681493D01*
X123451802Y-109715470D01*
X123421824Y-109665976D01*
X123401941Y-109538299D01*
X123397061Y-109414393D01*
X123397061Y-109277539D01*
X123506544Y-109277539D01*
X123542720Y-109366339D01*
X123618830Y-109382024D01*
X123686250Y-109315850D01*
X123688510Y-109310262D01*
X123688889Y-109210403D01*
X123598536Y-109168700D01*
X123579532Y-109168057D01*
X123520324Y-109213709D01*
X123506544Y-109277539D01*
X123397061Y-109277539D01*
X123397061Y-109113315D01*
X123590374Y-109113315D01*
X123752126Y-109142365D01*
G37*
G36*
X123551371Y-107314839D02*
G01*
X123700824Y-107350633D01*
X123794611Y-107431975D01*
X123847127Y-107576603D01*
X123872768Y-107802261D01*
X123881240Y-107983943D01*
X123888370Y-108228485D01*
X123885225Y-108390009D01*
X123867002Y-108494843D01*
X123828896Y-108569314D01*
X123766103Y-108639751D01*
X123760560Y-108645310D01*
X123654999Y-108730364D01*
X123531991Y-108772358D01*
X123348853Y-108784732D01*
X123317437Y-108784867D01*
X123013871Y-108784867D01*
X123013871Y-108620643D01*
X123013871Y-107471074D01*
X123232837Y-107471074D01*
X123232837Y-108620643D01*
X123386113Y-108620643D01*
X123522891Y-108598460D01*
X123605078Y-108554953D01*
X123634623Y-108472700D01*
X123656329Y-108314117D01*
X123669123Y-108112150D01*
X123671933Y-107899743D01*
X123663687Y-107709839D01*
X123643312Y-107575384D01*
X123637541Y-107557663D01*
X123555377Y-107490148D01*
X123418575Y-107471074D01*
X123232837Y-107471074D01*
X123013871Y-107471074D01*
X123013871Y-107306850D01*
X123331857Y-107306850D01*
X123551371Y-107314839D01*
G37*
G36*
X128861284Y-107314839D02*
G01*
X129010738Y-107350633D01*
X129104525Y-107431975D01*
X129157041Y-107576603D01*
X129182682Y-107802261D01*
X129191154Y-107983943D01*
X129198284Y-108228485D01*
X129195139Y-108390009D01*
X129176916Y-108494843D01*
X129138810Y-108569314D01*
X129076017Y-108639751D01*
X129070474Y-108645310D01*
X128964913Y-108730364D01*
X128841905Y-108772358D01*
X128658767Y-108784732D01*
X128627351Y-108784867D01*
X128323785Y-108784867D01*
X128323785Y-108620643D01*
X128323785Y-107471074D01*
X128542751Y-107471074D01*
X128542751Y-108620643D01*
X128696027Y-108620643D01*
X128832805Y-108598460D01*
X128914992Y-108554953D01*
X128944537Y-108472700D01*
X128966243Y-108314117D01*
X128979037Y-108112150D01*
X128981847Y-107899743D01*
X128973601Y-107709839D01*
X128953225Y-107575384D01*
X128947454Y-107557663D01*
X128865290Y-107490148D01*
X128728489Y-107471074D01*
X128542751Y-107471074D01*
X128323785Y-107471074D01*
X128323785Y-107306850D01*
X128641771Y-107306850D01*
X128861284Y-107314839D01*
G37*
G36*
X126453938Y-107316579D02*
G01*
X126589785Y-107351389D01*
X126681544Y-107416332D01*
X126771115Y-107575712D01*
X126783524Y-107767117D01*
X126718600Y-107944735D01*
X126683668Y-107988856D01*
X126620661Y-108067234D01*
X126604358Y-108144357D01*
X126631849Y-108262083D01*
X126659022Y-108343206D01*
X126721404Y-108512389D01*
X126779399Y-108650887D01*
X126795677Y-108684073D01*
X126819127Y-108758861D01*
X126760942Y-108783545D01*
X126715402Y-108784867D01*
X126634509Y-108770048D01*
X126573659Y-108709704D01*
X126514769Y-108580008D01*
X126476538Y-108470104D01*
X126403184Y-108280003D01*
X126333410Y-108176401D01*
X126253010Y-108137848D01*
X126187393Y-108136644D01*
X126151734Y-108173593D01*
X126136993Y-108272630D01*
X126134130Y-108452611D01*
X126130225Y-108637344D01*
X126113038Y-108737628D01*
X126074357Y-108778379D01*
X126024647Y-108784867D01*
X125980654Y-108779013D01*
X125950343Y-108750032D01*
X125931176Y-108680797D01*
X125920616Y-108554178D01*
X125916125Y-108353050D01*
X125915165Y-108060283D01*
X125915165Y-107720878D01*
X126134130Y-107720878D01*
X126137911Y-107873207D01*
X126162851Y-107943579D01*
X126229344Y-107959519D01*
X126306519Y-107953529D01*
X126445060Y-107915421D01*
X126533545Y-107849051D01*
X126562194Y-107732418D01*
X126551708Y-107616400D01*
X126508060Y-107515874D01*
X126420903Y-107476163D01*
X126324682Y-107471074D01*
X126208175Y-107476241D01*
X126152611Y-107511470D01*
X126135419Y-107606348D01*
X126134130Y-107720878D01*
X125915165Y-107720878D01*
X125915165Y-107306850D01*
X126243613Y-107306850D01*
X126453938Y-107316579D01*
G37*
G36*
X124756955Y-107316579D02*
G01*
X124892803Y-107351389D01*
X124984561Y-107416332D01*
X125074133Y-107575712D01*
X125086541Y-107767117D01*
X125021617Y-107944735D01*
X124986685Y-107988856D01*
X124923678Y-108067234D01*
X124907375Y-108144357D01*
X124934866Y-108262083D01*
X124962039Y-108343206D01*
X125024422Y-108512389D01*
X125082416Y-108650887D01*
X125098694Y-108684073D01*
X125122144Y-108758861D01*
X125063960Y-108783545D01*
X125018420Y-108784867D01*
X124937527Y-108770048D01*
X124876676Y-108709704D01*
X124817786Y-108580008D01*
X124779555Y-108470104D01*
X124706201Y-108280003D01*
X124636427Y-108176401D01*
X124556028Y-108137848D01*
X124490410Y-108136644D01*
X124454751Y-108173593D01*
X124440010Y-108272630D01*
X124437147Y-108452611D01*
X124433243Y-108637344D01*
X124416055Y-108737628D01*
X124377374Y-108778379D01*
X124327665Y-108784867D01*
X124283672Y-108779013D01*
X124253360Y-108750032D01*
X124234193Y-108680797D01*
X124223633Y-108554178D01*
X124219142Y-108353050D01*
X124218183Y-108060283D01*
X124218182Y-108045858D01*
X124218182Y-107720878D01*
X124437147Y-107720878D01*
X124440928Y-107873207D01*
X124465868Y-107943579D01*
X124532361Y-107959519D01*
X124609536Y-107953529D01*
X124748077Y-107915421D01*
X124836563Y-107849051D01*
X124865211Y-107732418D01*
X124854726Y-107616400D01*
X124811077Y-107515874D01*
X124723920Y-107476163D01*
X124627699Y-107471074D01*
X124511192Y-107476241D01*
X124455628Y-107511470D01*
X124438436Y-107606348D01*
X124437147Y-107720878D01*
X124218182Y-107720878D01*
X124218182Y-107306850D01*
X124546630Y-107306850D01*
X124756955Y-107316579D01*
G37*
G36*
X127676683Y-107313912D02*
G01*
X127823614Y-107391897D01*
X127855379Y-107428513D01*
X127919660Y-107544433D01*
X127940596Y-107620108D01*
X127903678Y-107681172D01*
X127822249Y-107685189D01*
X127740297Y-107639566D01*
X127705769Y-107580557D01*
X127637578Y-107493408D01*
X127526052Y-107468607D01*
X127417986Y-107506350D01*
X127366260Y-107579142D01*
X127369601Y-107723917D01*
X127442328Y-107900702D01*
X127566818Y-108075052D01*
X127670201Y-108173190D01*
X127831113Y-108300522D01*
X127831113Y-108159505D01*
X127855176Y-108050120D01*
X127939433Y-108018490D01*
X127940596Y-108018488D01*
X128022328Y-108046532D01*
X128048015Y-108139786D01*
X128019872Y-108311930D01*
X127999976Y-108385501D01*
X127976878Y-108527723D01*
X128015221Y-108613527D01*
X128027347Y-108624493D01*
X128088074Y-108686973D01*
X128083082Y-108728700D01*
X128000576Y-108754321D01*
X127828756Y-108768483D01*
X127647579Y-108774098D01*
X127411362Y-108775171D01*
X127258469Y-108763247D01*
X127163092Y-108734091D01*
X127100165Y-108684291D01*
X127027135Y-108533210D01*
X127016354Y-108380710D01*
X127228958Y-108380710D01*
X127264435Y-108538565D01*
X127355363Y-108636510D01*
X127478490Y-108651176D01*
X127493456Y-108646541D01*
X127594607Y-108622263D01*
X127616624Y-108620643D01*
X127669238Y-108585837D01*
X127655939Y-108499017D01*
X127587221Y-108386578D01*
X127481665Y-108281260D01*
X127345278Y-108186108D01*
X127267917Y-108177437D01*
X127234423Y-108261214D01*
X127228958Y-108380710D01*
X127016354Y-108380710D01*
X127013623Y-108342071D01*
X127058339Y-108161857D01*
X127115554Y-108077150D01*
X127182657Y-107988764D01*
X127190039Y-107888992D01*
X127162033Y-107779074D01*
X127130931Y-107625651D01*
X127158937Y-107507656D01*
X127194586Y-107446706D01*
X127320443Y-107342465D01*
X127495050Y-107297818D01*
X127676683Y-107313912D01*
G37*
D11*
%TO.C,R7*%
X121657621Y-123590000D02*
X121322379Y-123590000D01*
X121657621Y-124350000D02*
X121322379Y-124350000D01*
%TO.C,C8*%
X120955000Y-114603748D02*
X120955000Y-115126252D01*
X119485000Y-114603748D02*
X119485000Y-115126252D01*
%TD*%
M02*
