%TF.GenerationSoftware,KiCad,Pcbnew,9.0.1*%
%TF.CreationDate,2025-04-30T15:21:50+05:30*%
%TF.ProjectId,APD_Safety_PCB,4150445f-5361-4666-9574-795f5043422e,rev?*%
%TF.SameCoordinates,Original*%
%TF.FileFunction,Copper,L2,Bot*%
%TF.FilePolarity,Positive*%
%FSLAX46Y46*%
G04 Gerber Fmt 4.6, Leading zero omitted, Abs format (unit mm)*
G04 Created by KiCad (PCBNEW 9.0.1) date 2025-04-30 15:21:50*
%MOMM*%
%LPD*%
G01*
G04 APERTURE LIST*
%TA.AperFunction,ComponentPad*%
%ADD10R,1.700000X1.700000*%
%TD*%
%TA.AperFunction,ComponentPad*%
%ADD11O,1.700000X1.700000*%
%TD*%
%TA.AperFunction,ViaPad*%
%ADD12C,0.600000*%
%TD*%
%TA.AperFunction,Conductor*%
%ADD13C,0.300000*%
%TD*%
%TA.AperFunction,Conductor*%
%ADD14C,0.500000*%
%TD*%
G04 APERTURE END LIST*
D10*
%TO.P,J3,1,Pin_1*%
%TO.N,RESET*%
X107920000Y-127950000D03*
D11*
%TO.P,J3,2,Pin_2*%
%TO.N,MOSI*%
X110460000Y-127950000D03*
%TO.P,J3,3,Pin_3*%
%TO.N,MISO*%
X113000000Y-127950000D03*
%TO.P,J3,4,Pin_4*%
%TO.N,SCK*%
X115540000Y-127950000D03*
%TO.P,J3,5,Pin_5*%
%TO.N,VCC*%
X118080000Y-127950000D03*
%TO.P,J3,6,Pin_6*%
%TO.N,GND*%
X120620000Y-127950000D03*
%TD*%
D12*
%TO.N,GND*%
X106587500Y-106810000D03*
X109325000Y-106810000D03*
X106595000Y-108715000D03*
X107485000Y-107765000D03*
X108412500Y-106810000D03*
X108420000Y-108715000D03*
X122275000Y-108690000D03*
X123045000Y-120265000D03*
X125362500Y-119742500D03*
X116690000Y-118110000D03*
X107360000Y-117990000D03*
X122010000Y-125310000D03*
X120830000Y-123950000D03*
X104950000Y-117720000D03*
X100940000Y-107065000D03*
X123600000Y-128090000D03*
X102200000Y-110490000D03*
X122010000Y-102790000D03*
X109650000Y-102780000D03*
X128730000Y-123250000D03*
X127630000Y-128350000D03*
X102040000Y-125997500D03*
%TO.N,+VDC*%
X127337500Y-120707500D03*
X125062500Y-121657500D03*
%TO.N,A0*%
X111900000Y-119060000D03*
X102220000Y-120900000D03*
%TO.N,Net-(U1-VFB)*%
X127337500Y-121657500D03*
X123159815Y-122840185D03*
%TO.N,SCL*%
X113920000Y-112657500D03*
X101970000Y-114540000D03*
%TO.N,RX*%
X112022120Y-115972120D03*
X102130000Y-117020000D03*
%TO.N,TX*%
X111081981Y-116724348D03*
X102145000Y-118935000D03*
%TO.N,SDA*%
X114930000Y-112487500D03*
X102250000Y-112410000D03*
%TO.N,VCC*%
X119770000Y-120590000D03*
X112900000Y-111302500D03*
X109540000Y-118110000D03*
%TD*%
D13*
%TO.N,RX*%
X103195000Y-115955000D02*
X102130000Y-117020000D01*
X112005000Y-115955000D02*
X103195000Y-115955000D01*
X112022120Y-115972120D02*
X112005000Y-115955000D01*
%TO.N,TX*%
X104200000Y-117040000D02*
X102305000Y-118935000D01*
X110766329Y-117040000D02*
X104200000Y-117040000D01*
X111081981Y-116724348D02*
X110766329Y-117040000D01*
X102305000Y-118935000D02*
X102145000Y-118935000D01*
%TO.N,Net-(U1-VFB)*%
X126154815Y-122840185D02*
X127337500Y-121657500D01*
X123159815Y-122840185D02*
X126154815Y-122840185D01*
D14*
%TO.N,+VDC*%
X125922500Y-121657500D02*
X126872500Y-120707500D01*
X125062500Y-121657500D02*
X125922500Y-121657500D01*
X126872500Y-120707500D02*
X127337500Y-120707500D01*
D13*
%TO.N,A0*%
X103560000Y-119560000D02*
X102220000Y-120900000D01*
X111400000Y-119560000D02*
X103560000Y-119560000D01*
X111900000Y-119060000D02*
X111400000Y-119560000D01*
%TO.N,SCL*%
X113140000Y-110520000D02*
X105990000Y-110520000D01*
X113920000Y-112657500D02*
X113920000Y-111300000D01*
X105990000Y-110520000D02*
X101970000Y-114540000D01*
X113920000Y-111300000D02*
X113140000Y-110520000D01*
%TO.N,SDA*%
X114930000Y-111550000D02*
X113390000Y-110010000D01*
X113390000Y-110010000D02*
X104650000Y-110010000D01*
X114930000Y-112487500D02*
X114930000Y-111550000D01*
X104650000Y-110010000D02*
X102250000Y-112410000D01*
%TO.N,VCC*%
X113485000Y-118595000D02*
X115480000Y-120590000D01*
X113530000Y-113880000D02*
X113530000Y-118550000D01*
X112900000Y-113250000D02*
X113530000Y-113880000D01*
X109564998Y-118134998D02*
X113024998Y-118134998D01*
X112900000Y-111302500D02*
X112900000Y-113250000D01*
X113530000Y-118550000D02*
X113485000Y-118595000D01*
X109540000Y-118110000D02*
X109564998Y-118134998D01*
D14*
X119770000Y-120590000D02*
X119830000Y-120650000D01*
D13*
X115480000Y-120590000D02*
X119770000Y-120590000D01*
X113024998Y-118134998D02*
X113485000Y-118595000D01*
%TD*%
%TA.AperFunction,Conductor*%
%TO.N,GND*%
G36*
X108728768Y-117710185D02*
G01*
X108774523Y-117762989D01*
X108784467Y-117832147D01*
X108776290Y-117861953D01*
X108770263Y-117876502D01*
X108770261Y-117876510D01*
X108739500Y-118031153D01*
X108739500Y-118188846D01*
X108770261Y-118343489D01*
X108770264Y-118343501D01*
X108830602Y-118489172D01*
X108830609Y-118489185D01*
X108918210Y-118620288D01*
X108918213Y-118620292D01*
X108995740Y-118697819D01*
X109029225Y-118759142D01*
X109024241Y-118828834D01*
X108982369Y-118884767D01*
X108916905Y-118909184D01*
X108908059Y-118909500D01*
X103549807Y-118909500D01*
X103482768Y-118889815D01*
X103437013Y-118837011D01*
X103427069Y-118767853D01*
X103456094Y-118704297D01*
X103462126Y-118697819D01*
X103670761Y-118489185D01*
X104433127Y-117726819D01*
X104494450Y-117693334D01*
X104520808Y-117690500D01*
X108661729Y-117690500D01*
X108728768Y-117710185D01*
G37*
%TD.AperFunction*%
%TA.AperFunction,Conductor*%
G36*
X127206746Y-100510474D02*
G01*
X127209575Y-100511199D01*
X127272478Y-100510501D01*
X127273106Y-100510502D01*
X127273235Y-100510540D01*
X127279205Y-100510655D01*
X127535090Y-100523403D01*
X127550050Y-100525064D01*
X127798771Y-100568133D01*
X127813420Y-100571599D01*
X128055055Y-100644533D01*
X128069188Y-100649756D01*
X128300182Y-100751480D01*
X128313564Y-100758373D01*
X128530513Y-100887389D01*
X128542970Y-100895864D01*
X128635184Y-100967163D01*
X128742634Y-101050243D01*
X128753981Y-101060175D01*
X128933432Y-101237652D01*
X128943489Y-101248888D01*
X129100070Y-101446834D01*
X129108688Y-101459207D01*
X129240082Y-101674691D01*
X129247135Y-101688019D01*
X129351401Y-101917855D01*
X129356785Y-101931941D01*
X129432387Y-102172749D01*
X129436020Y-102187384D01*
X129481828Y-102435567D01*
X129483659Y-102450534D01*
X129489175Y-102541080D01*
X129499271Y-102706824D01*
X129499500Y-102714346D01*
X129499500Y-127206212D01*
X129499498Y-127215454D01*
X129499140Y-127216824D01*
X129499488Y-127279148D01*
X129499488Y-127279653D01*
X129499466Y-127279725D01*
X129499300Y-127286465D01*
X129485185Y-127542256D01*
X129483446Y-127557200D01*
X129439121Y-127805676D01*
X129435585Y-127820299D01*
X129361498Y-128061568D01*
X129356218Y-128075655D01*
X129253451Y-128306194D01*
X129246503Y-128319539D01*
X129116579Y-128535924D01*
X129108067Y-128548328D01*
X128952891Y-128747392D01*
X128942938Y-128758675D01*
X128764801Y-128937476D01*
X128753556Y-128947470D01*
X128555074Y-129103385D01*
X128542701Y-129111944D01*
X128326795Y-129242676D01*
X128313477Y-129249673D01*
X128083332Y-129353295D01*
X128069264Y-129358628D01*
X127828265Y-129433614D01*
X127813656Y-129437204D01*
X127565342Y-129482455D01*
X127550405Y-129484249D01*
X127295301Y-129499280D01*
X127288016Y-129499495D01*
X127287696Y-129499495D01*
X127225033Y-129499379D01*
X127224580Y-129499499D01*
X127216097Y-129499500D01*
X127216095Y-129499499D01*
X127216088Y-129499500D01*
X121002727Y-129499500D01*
X120935688Y-129479815D01*
X120889933Y-129427011D01*
X120879989Y-129357853D01*
X120909014Y-129294297D01*
X120964409Y-129257569D01*
X121138217Y-129201095D01*
X121327557Y-129104620D01*
X121499459Y-128979727D01*
X121499464Y-128979723D01*
X121649723Y-128829464D01*
X121649727Y-128829459D01*
X121774620Y-128657557D01*
X121871095Y-128468217D01*
X121936757Y-128266129D01*
X121936757Y-128266126D01*
X121947231Y-128200000D01*
X121053012Y-128200000D01*
X121085925Y-128142993D01*
X121120000Y-128015826D01*
X121120000Y-127884174D01*
X121085925Y-127757007D01*
X121053012Y-127700000D01*
X121947231Y-127700000D01*
X121936757Y-127633873D01*
X121936757Y-127633870D01*
X121871095Y-127431782D01*
X121774620Y-127242442D01*
X121649727Y-127070540D01*
X121649723Y-127070535D01*
X121499464Y-126920276D01*
X121499459Y-126920272D01*
X121327557Y-126795379D01*
X121138215Y-126698903D01*
X120936124Y-126633241D01*
X120870000Y-126622768D01*
X120870000Y-127516988D01*
X120812993Y-127484075D01*
X120685826Y-127450000D01*
X120554174Y-127450000D01*
X120427007Y-127484075D01*
X120370000Y-127516988D01*
X120370000Y-126622768D01*
X120369999Y-126622768D01*
X120303875Y-126633241D01*
X120101784Y-126698903D01*
X119912442Y-126795379D01*
X119740540Y-126920272D01*
X119740535Y-126920276D01*
X119590276Y-127070535D01*
X119590272Y-127070540D01*
X119465378Y-127242443D01*
X119460762Y-127251502D01*
X119412784Y-127302295D01*
X119344963Y-127319087D01*
X119278829Y-127296546D01*
X119239794Y-127251493D01*
X119235051Y-127242184D01*
X119235049Y-127242181D01*
X119235048Y-127242179D01*
X119110109Y-127070213D01*
X118959786Y-126919890D01*
X118787820Y-126794951D01*
X118598414Y-126698444D01*
X118598413Y-126698443D01*
X118598412Y-126698443D01*
X118396243Y-126632754D01*
X118396241Y-126632753D01*
X118396240Y-126632753D01*
X118234957Y-126607208D01*
X118186287Y-126599500D01*
X117973713Y-126599500D01*
X117925042Y-126607208D01*
X117763760Y-126632753D01*
X117561585Y-126698444D01*
X117372179Y-126794951D01*
X117200213Y-126919890D01*
X117049890Y-127070213D01*
X116924949Y-127242182D01*
X116920484Y-127250946D01*
X116872509Y-127301742D01*
X116804688Y-127318536D01*
X116738553Y-127295998D01*
X116699516Y-127250946D01*
X116695050Y-127242182D01*
X116570109Y-127070213D01*
X116419786Y-126919890D01*
X116247820Y-126794951D01*
X116058414Y-126698444D01*
X116058413Y-126698443D01*
X116058412Y-126698443D01*
X115856243Y-126632754D01*
X115856241Y-126632753D01*
X115856240Y-126632753D01*
X115694957Y-126607208D01*
X115646287Y-126599500D01*
X115433713Y-126599500D01*
X115385042Y-126607208D01*
X115223760Y-126632753D01*
X115021585Y-126698444D01*
X114832179Y-126794951D01*
X114660213Y-126919890D01*
X114509890Y-127070213D01*
X114384949Y-127242182D01*
X114380484Y-127250946D01*
X114332509Y-127301742D01*
X114264688Y-127318536D01*
X114198553Y-127295998D01*
X114159516Y-127250946D01*
X114155050Y-127242182D01*
X114030109Y-127070213D01*
X113879786Y-126919890D01*
X113707820Y-126794951D01*
X113518414Y-126698444D01*
X113518413Y-126698443D01*
X113518412Y-126698443D01*
X113316243Y-126632754D01*
X113316241Y-126632753D01*
X113316240Y-126632753D01*
X113154957Y-126607208D01*
X113106287Y-126599500D01*
X112893713Y-126599500D01*
X112845042Y-126607208D01*
X112683760Y-126632753D01*
X112481585Y-126698444D01*
X112292179Y-126794951D01*
X112120213Y-126919890D01*
X111969890Y-127070213D01*
X111844949Y-127242182D01*
X111840484Y-127250946D01*
X111792509Y-127301742D01*
X111724688Y-127318536D01*
X111658553Y-127295998D01*
X111619516Y-127250946D01*
X111615050Y-127242182D01*
X111490109Y-127070213D01*
X111339786Y-126919890D01*
X111167820Y-126794951D01*
X110978414Y-126698444D01*
X110978413Y-126698443D01*
X110978412Y-126698443D01*
X110776243Y-126632754D01*
X110776241Y-126632753D01*
X110776240Y-126632753D01*
X110614957Y-126607208D01*
X110566287Y-126599500D01*
X110353713Y-126599500D01*
X110305042Y-126607208D01*
X110143760Y-126632753D01*
X109941585Y-126698444D01*
X109752179Y-126794951D01*
X109580215Y-126919889D01*
X109466673Y-127033431D01*
X109405350Y-127066915D01*
X109335658Y-127061931D01*
X109279725Y-127020059D01*
X109262810Y-126989082D01*
X109213797Y-126857671D01*
X109213793Y-126857664D01*
X109127547Y-126742455D01*
X109127544Y-126742452D01*
X109012335Y-126656206D01*
X109012328Y-126656202D01*
X108877482Y-126605908D01*
X108877483Y-126605908D01*
X108817883Y-126599501D01*
X108817881Y-126599500D01*
X108817873Y-126599500D01*
X108817864Y-126599500D01*
X107022129Y-126599500D01*
X107022123Y-126599501D01*
X106962516Y-126605908D01*
X106827671Y-126656202D01*
X106827664Y-126656206D01*
X106712455Y-126742452D01*
X106712452Y-126742455D01*
X106626206Y-126857664D01*
X106626202Y-126857671D01*
X106575908Y-126992517D01*
X106569501Y-127052116D01*
X106569500Y-127052135D01*
X106569500Y-128847870D01*
X106569501Y-128847876D01*
X106575908Y-128907483D01*
X106626202Y-129042328D01*
X106626206Y-129042335D01*
X106712452Y-129157544D01*
X106712455Y-129157547D01*
X106827664Y-129243793D01*
X106827671Y-129243797D01*
X106869285Y-129259318D01*
X106925219Y-129301189D01*
X106949636Y-129366653D01*
X106934785Y-129434926D01*
X106885380Y-129484332D01*
X106825952Y-129499500D01*
X102793665Y-129499500D01*
X102784008Y-129499498D01*
X102782183Y-129499024D01*
X102719650Y-129499488D01*
X102719112Y-129499488D01*
X102719021Y-129499461D01*
X102712526Y-129499312D01*
X102457333Y-129485698D01*
X102442387Y-129483987D01*
X102194424Y-129440224D01*
X102179795Y-129436715D01*
X101938955Y-129363244D01*
X101924858Y-129357989D01*
X101814857Y-129309196D01*
X101694693Y-129255895D01*
X101681344Y-129248976D01*
X101465235Y-129119759D01*
X101452815Y-129111270D01*
X101364038Y-129042328D01*
X101253937Y-128956825D01*
X101242644Y-128946901D01*
X101142878Y-128847870D01*
X101063944Y-128769518D01*
X101053930Y-128758292D01*
X100898018Y-128560566D01*
X100889436Y-128548209D01*
X100758619Y-128333059D01*
X100751604Y-128319766D01*
X100647804Y-128090353D01*
X100642451Y-128076312D01*
X100567195Y-127836015D01*
X100563579Y-127821413D01*
X100541222Y-127700000D01*
X100517978Y-127573773D01*
X100516159Y-127558862D01*
X100500728Y-127304951D01*
X100500500Y-127297429D01*
X100500500Y-124868872D01*
X102999500Y-124868872D01*
X102999500Y-125131127D01*
X103020436Y-125290140D01*
X103033730Y-125391116D01*
X103055178Y-125471161D01*
X103101602Y-125644418D01*
X103101605Y-125644428D01*
X103201953Y-125886690D01*
X103201958Y-125886700D01*
X103333075Y-126113803D01*
X103492718Y-126321851D01*
X103492726Y-126321860D01*
X103678140Y-126507274D01*
X103678148Y-126507281D01*
X103886196Y-126666924D01*
X104113299Y-126798041D01*
X104113309Y-126798046D01*
X104257257Y-126857671D01*
X104355581Y-126898398D01*
X104608884Y-126966270D01*
X104868880Y-127000500D01*
X104868887Y-127000500D01*
X105131113Y-127000500D01*
X105131120Y-127000500D01*
X105391116Y-126966270D01*
X105644419Y-126898398D01*
X105886697Y-126798043D01*
X106113803Y-126666924D01*
X106321851Y-126507282D01*
X106321855Y-126507277D01*
X106321860Y-126507274D01*
X106507274Y-126321860D01*
X106507277Y-126321855D01*
X106507282Y-126321851D01*
X106666924Y-126113803D01*
X106798043Y-125886697D01*
X106898398Y-125644419D01*
X106966270Y-125391116D01*
X107000500Y-125131120D01*
X107000500Y-124868880D01*
X106966270Y-124608884D01*
X106898398Y-124355581D01*
X106800204Y-124118520D01*
X106798046Y-124113309D01*
X106798041Y-124113299D01*
X106666924Y-123886196D01*
X106544424Y-123726554D01*
X106507282Y-123678149D01*
X106507281Y-123678148D01*
X106507274Y-123678140D01*
X106321860Y-123492726D01*
X106321851Y-123492718D01*
X106113803Y-123333075D01*
X105886700Y-123201958D01*
X105886690Y-123201953D01*
X105644428Y-123101605D01*
X105644421Y-123101603D01*
X105644419Y-123101602D01*
X105391116Y-123033730D01*
X105333339Y-123026123D01*
X105131127Y-122999500D01*
X105131120Y-122999500D01*
X104868880Y-122999500D01*
X104868872Y-122999500D01*
X104637772Y-123029926D01*
X104608884Y-123033730D01*
X104355581Y-123101602D01*
X104355571Y-123101605D01*
X104113309Y-123201953D01*
X104113299Y-123201958D01*
X103886196Y-123333075D01*
X103678148Y-123492718D01*
X103492718Y-123678148D01*
X103333075Y-123886196D01*
X103201958Y-124113299D01*
X103201953Y-124113309D01*
X103101605Y-124355571D01*
X103101602Y-124355581D01*
X103033730Y-124608885D01*
X102999500Y-124868872D01*
X100500500Y-124868872D01*
X100500500Y-122761338D01*
X122359315Y-122761338D01*
X122359315Y-122919031D01*
X122390076Y-123073674D01*
X122390079Y-123073686D01*
X122450417Y-123219357D01*
X122450424Y-123219370D01*
X122538025Y-123350473D01*
X122538028Y-123350477D01*
X122649522Y-123461971D01*
X122649526Y-123461974D01*
X122780629Y-123549575D01*
X122780642Y-123549582D01*
X122926313Y-123609920D01*
X122926318Y-123609922D01*
X123080968Y-123640684D01*
X123080971Y-123640685D01*
X123080973Y-123640685D01*
X123238658Y-123640685D01*
X123242673Y-123639885D01*
X123249269Y-123638574D01*
X123318860Y-123644798D01*
X123374039Y-123687658D01*
X123397287Y-123753547D01*
X123381222Y-123821545D01*
X123371842Y-123835675D01*
X123333074Y-123886198D01*
X123201958Y-124113299D01*
X123201953Y-124113309D01*
X123101605Y-124355571D01*
X123101602Y-124355581D01*
X123033730Y-124608885D01*
X122999500Y-124868872D01*
X122999500Y-125131127D01*
X123020436Y-125290140D01*
X123033730Y-125391116D01*
X123055178Y-125471161D01*
X123101602Y-125644418D01*
X123101605Y-125644428D01*
X123201953Y-125886690D01*
X123201958Y-125886700D01*
X123333075Y-126113803D01*
X123492718Y-126321851D01*
X123492726Y-126321860D01*
X123678140Y-126507274D01*
X123678148Y-126507281D01*
X123886196Y-126666924D01*
X124113299Y-126798041D01*
X124113309Y-126798046D01*
X124257257Y-126857671D01*
X124355581Y-126898398D01*
X124608884Y-126966270D01*
X124868880Y-127000500D01*
X124868887Y-127000500D01*
X125131113Y-127000500D01*
X125131120Y-127000500D01*
X125391116Y-126966270D01*
X125644419Y-126898398D01*
X125886697Y-126798043D01*
X126113803Y-126666924D01*
X126321851Y-126507282D01*
X126321855Y-126507277D01*
X126321860Y-126507274D01*
X126507274Y-126321860D01*
X126507277Y-126321855D01*
X126507282Y-126321851D01*
X126666924Y-126113803D01*
X126798043Y-125886697D01*
X126898398Y-125644419D01*
X126966270Y-125391116D01*
X127000500Y-125131120D01*
X127000500Y-124868880D01*
X126966270Y-124608884D01*
X126898398Y-124355581D01*
X126800204Y-124118520D01*
X126798046Y-124113309D01*
X126798041Y-124113299D01*
X126666924Y-123886196D01*
X126544424Y-123726554D01*
X126507282Y-123678149D01*
X126507281Y-123678148D01*
X126507274Y-123678140D01*
X126439605Y-123610471D01*
X126406120Y-123549148D01*
X126411104Y-123479456D01*
X126452976Y-123423523D01*
X126458396Y-123419687D01*
X126462939Y-123416650D01*
X126462942Y-123416650D01*
X126569484Y-123345462D01*
X127440430Y-122474513D01*
X127501751Y-122441030D01*
X127503830Y-122440596D01*
X127570997Y-122427237D01*
X127716679Y-122366894D01*
X127847789Y-122279289D01*
X127959289Y-122167789D01*
X128046894Y-122036679D01*
X128107237Y-121890997D01*
X128138000Y-121736342D01*
X128138000Y-121578658D01*
X128138000Y-121578655D01*
X128137999Y-121578653D01*
X128107238Y-121424010D01*
X128107237Y-121424003D01*
X128085555Y-121371658D01*
X128046897Y-121278327D01*
X128046889Y-121278312D01*
X128028901Y-121251392D01*
X128008022Y-121184715D01*
X128026506Y-121117335D01*
X128028901Y-121113608D01*
X128046889Y-121086687D01*
X128046890Y-121086684D01*
X128046894Y-121086679D01*
X128055286Y-121066420D01*
X128080930Y-121004508D01*
X128107237Y-120940997D01*
X128138000Y-120786342D01*
X128138000Y-120628658D01*
X128138000Y-120628655D01*
X128137999Y-120628653D01*
X128116551Y-120520827D01*
X128107237Y-120474003D01*
X128107235Y-120473998D01*
X128046897Y-120328327D01*
X128046890Y-120328314D01*
X127959289Y-120197211D01*
X127959286Y-120197207D01*
X127847792Y-120085713D01*
X127847788Y-120085710D01*
X127716685Y-119998109D01*
X127716672Y-119998102D01*
X127571001Y-119937764D01*
X127570989Y-119937761D01*
X127416345Y-119907000D01*
X127416342Y-119907000D01*
X127258658Y-119907000D01*
X127258655Y-119907000D01*
X127104011Y-119937760D01*
X127104006Y-119937762D01*
X127104004Y-119937762D01*
X127104003Y-119937763D01*
X127080344Y-119947562D01*
X127032896Y-119957000D01*
X126798580Y-119957000D01*
X126653592Y-119985840D01*
X126653582Y-119985843D01*
X126517009Y-120042413D01*
X126482793Y-120065276D01*
X126394081Y-120124550D01*
X125647951Y-120870681D01*
X125621023Y-120885384D01*
X125595205Y-120901977D01*
X125589004Y-120902868D01*
X125586628Y-120904166D01*
X125560270Y-120907000D01*
X125367104Y-120907000D01*
X125319655Y-120897562D01*
X125295997Y-120887763D01*
X125295993Y-120887762D01*
X125295988Y-120887760D01*
X125141345Y-120857000D01*
X125141342Y-120857000D01*
X124983658Y-120857000D01*
X124983655Y-120857000D01*
X124829010Y-120887761D01*
X124828998Y-120887764D01*
X124683327Y-120948102D01*
X124683314Y-120948109D01*
X124552211Y-121035710D01*
X124552207Y-121035713D01*
X124440713Y-121147207D01*
X124440710Y-121147211D01*
X124353109Y-121278314D01*
X124353102Y-121278327D01*
X124292764Y-121423998D01*
X124292761Y-121424010D01*
X124262000Y-121578653D01*
X124262000Y-121736346D01*
X124292761Y-121890989D01*
X124292764Y-121891001D01*
X124345465Y-122018233D01*
X124352934Y-122087702D01*
X124321659Y-122150181D01*
X124261569Y-122185833D01*
X124230904Y-122189685D01*
X123664750Y-122189685D01*
X123597711Y-122170000D01*
X123595905Y-122168818D01*
X123538994Y-122130791D01*
X123538987Y-122130787D01*
X123393316Y-122070449D01*
X123393304Y-122070446D01*
X123238660Y-122039685D01*
X123238657Y-122039685D01*
X123080973Y-122039685D01*
X123080970Y-122039685D01*
X122926325Y-122070446D01*
X122926313Y-122070449D01*
X122780642Y-122130787D01*
X122780629Y-122130794D01*
X122649526Y-122218395D01*
X122649522Y-122218398D01*
X122538028Y-122329892D01*
X122538025Y-122329896D01*
X122450424Y-122460999D01*
X122450417Y-122461012D01*
X122390079Y-122606683D01*
X122390076Y-122606695D01*
X122359315Y-122761338D01*
X100500500Y-122761338D01*
X100500500Y-114461153D01*
X101169500Y-114461153D01*
X101169500Y-114618846D01*
X101200261Y-114773489D01*
X101200264Y-114773501D01*
X101260602Y-114919172D01*
X101260609Y-114919185D01*
X101348210Y-115050288D01*
X101348213Y-115050292D01*
X101459707Y-115161786D01*
X101459711Y-115161789D01*
X101590814Y-115249390D01*
X101590827Y-115249397D01*
X101736498Y-115309735D01*
X101736503Y-115309737D01*
X101835843Y-115329497D01*
X101891153Y-115340499D01*
X101891156Y-115340500D01*
X101891158Y-115340500D01*
X102048844Y-115340500D01*
X102048845Y-115340499D01*
X102203497Y-115309737D01*
X102349179Y-115249394D01*
X102480289Y-115161789D01*
X102591789Y-115050289D01*
X102679394Y-114919179D01*
X102739737Y-114773497D01*
X102753079Y-114706416D01*
X102785463Y-114644509D01*
X102786959Y-114642985D01*
X106223127Y-111206819D01*
X106284450Y-111173334D01*
X106310808Y-111170500D01*
X111975500Y-111170500D01*
X112042539Y-111190185D01*
X112088294Y-111242989D01*
X112099500Y-111294500D01*
X112099500Y-111381346D01*
X112130261Y-111535989D01*
X112130264Y-111536001D01*
X112190602Y-111681672D01*
X112190606Y-111681679D01*
X112228602Y-111738544D01*
X112249480Y-111805221D01*
X112249500Y-111807435D01*
X112249500Y-113314069D01*
X112249500Y-113314071D01*
X112249499Y-113314071D01*
X112272011Y-113427237D01*
X112272012Y-113427240D01*
X112274498Y-113439743D01*
X112303656Y-113510135D01*
X112323535Y-113558127D01*
X112379056Y-113641221D01*
X112394726Y-113664673D01*
X112394727Y-113664674D01*
X112843181Y-114113127D01*
X112876666Y-114174450D01*
X112879500Y-114200808D01*
X112879500Y-115405644D01*
X112859815Y-115472683D01*
X112807011Y-115518438D01*
X112737853Y-115528382D01*
X112674297Y-115499357D01*
X112652398Y-115474535D01*
X112643909Y-115461831D01*
X112643906Y-115461827D01*
X112532412Y-115350333D01*
X112532408Y-115350330D01*
X112401305Y-115262729D01*
X112401292Y-115262722D01*
X112255621Y-115202384D01*
X112255609Y-115202381D01*
X112100965Y-115171620D01*
X112100962Y-115171620D01*
X111943278Y-115171620D01*
X111943275Y-115171620D01*
X111788630Y-115202381D01*
X111788618Y-115202384D01*
X111642947Y-115262722D01*
X111642933Y-115262730D01*
X111611699Y-115283601D01*
X111545022Y-115304480D01*
X111542807Y-115304500D01*
X103130929Y-115304500D01*
X103005261Y-115329497D01*
X103005255Y-115329499D01*
X102886870Y-115378535D01*
X102780331Y-115449722D01*
X102780324Y-115449728D01*
X102027068Y-116202984D01*
X101965745Y-116236469D01*
X101963579Y-116236920D01*
X101896508Y-116250261D01*
X101896498Y-116250264D01*
X101750827Y-116310602D01*
X101750814Y-116310609D01*
X101619711Y-116398210D01*
X101619707Y-116398213D01*
X101508213Y-116509707D01*
X101508210Y-116509711D01*
X101420609Y-116640814D01*
X101420602Y-116640827D01*
X101360264Y-116786498D01*
X101360261Y-116786510D01*
X101329500Y-116941153D01*
X101329500Y-117098846D01*
X101360261Y-117253489D01*
X101360264Y-117253501D01*
X101420602Y-117399172D01*
X101420609Y-117399185D01*
X101508210Y-117530288D01*
X101508213Y-117530292D01*
X101619707Y-117641786D01*
X101619711Y-117641789D01*
X101750814Y-117729390D01*
X101750827Y-117729397D01*
X101896498Y-117789735D01*
X101896503Y-117789737D01*
X102051153Y-117820499D01*
X102051156Y-117820500D01*
X102200192Y-117820500D01*
X102221437Y-117826738D01*
X102243526Y-117828318D01*
X102254309Y-117836390D01*
X102267231Y-117840185D01*
X102281730Y-117856918D01*
X102299459Y-117870190D01*
X102304166Y-117882810D01*
X102312986Y-117892989D01*
X102316137Y-117914906D01*
X102323876Y-117935654D01*
X102321013Y-117948814D01*
X102322930Y-117962147D01*
X102313730Y-117982290D01*
X102309024Y-118003927D01*
X102295755Y-118021652D01*
X102293905Y-118025703D01*
X102287873Y-118032181D01*
X102221873Y-118098181D01*
X102160550Y-118131666D01*
X102134192Y-118134500D01*
X102066155Y-118134500D01*
X101911510Y-118165261D01*
X101911498Y-118165264D01*
X101765827Y-118225602D01*
X101765814Y-118225609D01*
X101634711Y-118313210D01*
X101634707Y-118313213D01*
X101523213Y-118424707D01*
X101523210Y-118424711D01*
X101435609Y-118555814D01*
X101435602Y-118555827D01*
X101375264Y-118701498D01*
X101375261Y-118701510D01*
X101344500Y-118856153D01*
X101344500Y-119013846D01*
X101375261Y-119168489D01*
X101375264Y-119168501D01*
X101435602Y-119314172D01*
X101435609Y-119314185D01*
X101523210Y-119445288D01*
X101523213Y-119445292D01*
X101634707Y-119556786D01*
X101634711Y-119556789D01*
X101765814Y-119644390D01*
X101765827Y-119644397D01*
X101856101Y-119681789D01*
X101911503Y-119704737D01*
X102066153Y-119735499D01*
X102066156Y-119735500D01*
X102165192Y-119735500D01*
X102186437Y-119741738D01*
X102208526Y-119743318D01*
X102219309Y-119751390D01*
X102232231Y-119755185D01*
X102246730Y-119771918D01*
X102264459Y-119785190D01*
X102269166Y-119797810D01*
X102277986Y-119807989D01*
X102281137Y-119829906D01*
X102288876Y-119850654D01*
X102286013Y-119863814D01*
X102287930Y-119877147D01*
X102278730Y-119897290D01*
X102274024Y-119918927D01*
X102260754Y-119936653D01*
X102258905Y-119940703D01*
X102252886Y-119947167D01*
X102157641Y-120042413D01*
X102117069Y-120082985D01*
X102055746Y-120116469D01*
X102053580Y-120116920D01*
X101986508Y-120130261D01*
X101986498Y-120130264D01*
X101840827Y-120190602D01*
X101840814Y-120190609D01*
X101709711Y-120278210D01*
X101709707Y-120278213D01*
X101598213Y-120389707D01*
X101598210Y-120389711D01*
X101510609Y-120520814D01*
X101510602Y-120520827D01*
X101450264Y-120666498D01*
X101450261Y-120666510D01*
X101419500Y-120821153D01*
X101419500Y-120978846D01*
X101450261Y-121133489D01*
X101450264Y-121133501D01*
X101510602Y-121279172D01*
X101510609Y-121279185D01*
X101598210Y-121410288D01*
X101598213Y-121410292D01*
X101709707Y-121521786D01*
X101709711Y-121521789D01*
X101840814Y-121609390D01*
X101840827Y-121609397D01*
X101986498Y-121669735D01*
X101986503Y-121669737D01*
X102141153Y-121700499D01*
X102141156Y-121700500D01*
X102141158Y-121700500D01*
X102298844Y-121700500D01*
X102298845Y-121700499D01*
X102453497Y-121669737D01*
X102599179Y-121609394D01*
X102730289Y-121521789D01*
X102841789Y-121410289D01*
X102929394Y-121279179D01*
X102989737Y-121133497D01*
X103003079Y-121066417D01*
X103035462Y-121004508D01*
X103036955Y-121002988D01*
X103793126Y-120246819D01*
X103854449Y-120213334D01*
X103880807Y-120210500D01*
X111464071Y-120210500D01*
X111564100Y-120190602D01*
X111589744Y-120185501D01*
X111708127Y-120136465D01*
X111708132Y-120136461D01*
X111708135Y-120136460D01*
X111725960Y-120124550D01*
X111725962Y-120124549D01*
X111793073Y-120079707D01*
X111814669Y-120065277D01*
X112002932Y-119877012D01*
X112064251Y-119843530D01*
X112066316Y-119843099D01*
X112133497Y-119829737D01*
X112262102Y-119776467D01*
X112279172Y-119769397D01*
X112279172Y-119769396D01*
X112279179Y-119769394D01*
X112410289Y-119681789D01*
X112521789Y-119570289D01*
X112609394Y-119439179D01*
X112669737Y-119293497D01*
X112700500Y-119138842D01*
X112700500Y-119029808D01*
X112706738Y-119008562D01*
X112708318Y-118986474D01*
X112716390Y-118975690D01*
X112720185Y-118962769D01*
X112736918Y-118948269D01*
X112750190Y-118930541D01*
X112762810Y-118925833D01*
X112772989Y-118917014D01*
X112794906Y-118913862D01*
X112815654Y-118906124D01*
X112828814Y-118908986D01*
X112842147Y-118907070D01*
X112862290Y-118916269D01*
X112883927Y-118920976D01*
X112901652Y-118934244D01*
X112905703Y-118936095D01*
X112912181Y-118942127D01*
X112979723Y-119009669D01*
X115065325Y-121095272D01*
X115065328Y-121095275D01*
X115065331Y-121095277D01*
X115143057Y-121147211D01*
X115171873Y-121166465D01*
X115290256Y-121215501D01*
X115290260Y-121215501D01*
X115290261Y-121215502D01*
X115415928Y-121240500D01*
X115415931Y-121240500D01*
X119265065Y-121240500D01*
X119332104Y-121260185D01*
X119333909Y-121261366D01*
X119390821Y-121299394D01*
X119390823Y-121299395D01*
X119390827Y-121299397D01*
X119536498Y-121359735D01*
X119536503Y-121359737D01*
X119691153Y-121390499D01*
X119691156Y-121390500D01*
X119691158Y-121390500D01*
X119693598Y-121390500D01*
X119717791Y-121392883D01*
X119756082Y-121400500D01*
X119756083Y-121400500D01*
X119903920Y-121400500D01*
X120001462Y-121381096D01*
X120048913Y-121371658D01*
X120117204Y-121343371D01*
X120185491Y-121315086D01*
X120185492Y-121315085D01*
X120185495Y-121315084D01*
X120308416Y-121232952D01*
X120412952Y-121128416D01*
X120495084Y-121005495D01*
X120496148Y-121002928D01*
X120539791Y-120897562D01*
X120551658Y-120868913D01*
X120568082Y-120786346D01*
X120580500Y-120723920D01*
X120580500Y-120576081D01*
X120572883Y-120537791D01*
X120570500Y-120513598D01*
X120570500Y-120511155D01*
X120570499Y-120511153D01*
X120563108Y-120473998D01*
X120539737Y-120356503D01*
X120528061Y-120328314D01*
X120479397Y-120210827D01*
X120479390Y-120210814D01*
X120391789Y-120079711D01*
X120391786Y-120079707D01*
X120280292Y-119968213D01*
X120280288Y-119968210D01*
X120149185Y-119880609D01*
X120149172Y-119880602D01*
X120003501Y-119820264D01*
X120003489Y-119820261D01*
X119848845Y-119789500D01*
X119848842Y-119789500D01*
X119691158Y-119789500D01*
X119691155Y-119789500D01*
X119536510Y-119820261D01*
X119536498Y-119820264D01*
X119390827Y-119880602D01*
X119390820Y-119880606D01*
X119365852Y-119897290D01*
X119333955Y-119918602D01*
X119267279Y-119939480D01*
X119265065Y-119939500D01*
X115800808Y-119939500D01*
X115733769Y-119919815D01*
X115713127Y-119903181D01*
X114216819Y-118406873D01*
X114183334Y-118345550D01*
X114180500Y-118319192D01*
X114180500Y-113815928D01*
X114155502Y-113690260D01*
X114155500Y-113690254D01*
X114135189Y-113641221D01*
X114135187Y-113641216D01*
X114109668Y-113579604D01*
X114102201Y-113510135D01*
X114133477Y-113447656D01*
X114176774Y-113417595D01*
X114299179Y-113366894D01*
X114430289Y-113279289D01*
X114465267Y-113244310D01*
X114526588Y-113210825D01*
X114596280Y-113215809D01*
X114600374Y-113217419D01*
X114696503Y-113257237D01*
X114851153Y-113287999D01*
X114851156Y-113288000D01*
X114851158Y-113288000D01*
X115008844Y-113288000D01*
X115008845Y-113287999D01*
X115163497Y-113257237D01*
X115302127Y-113199815D01*
X115309172Y-113196897D01*
X115309172Y-113196896D01*
X115309179Y-113196894D01*
X115440289Y-113109289D01*
X115551789Y-112997789D01*
X115639394Y-112866679D01*
X115699737Y-112720997D01*
X115730500Y-112566342D01*
X115730500Y-112408658D01*
X115730500Y-112408655D01*
X115730499Y-112408653D01*
X115699738Y-112254010D01*
X115699737Y-112254003D01*
X115639394Y-112108321D01*
X115601396Y-112051453D01*
X115580520Y-111984776D01*
X115580500Y-111982564D01*
X115580500Y-111485928D01*
X115555502Y-111360261D01*
X115555501Y-111360260D01*
X115555501Y-111360256D01*
X115506465Y-111241873D01*
X115494294Y-111223658D01*
X115435277Y-111135331D01*
X115435275Y-111135329D01*
X115435273Y-111135326D01*
X113804673Y-109504726D01*
X113698134Y-109433540D01*
X113698127Y-109433535D01*
X113579744Y-109384499D01*
X113579738Y-109384497D01*
X113454071Y-109359500D01*
X113454069Y-109359500D01*
X104585931Y-109359500D01*
X104585929Y-109359500D01*
X104460261Y-109384497D01*
X104460251Y-109384500D01*
X104411220Y-109404810D01*
X104341881Y-109433530D01*
X104341863Y-109433540D01*
X104235332Y-109504721D01*
X104235325Y-109504727D01*
X102147068Y-111592984D01*
X102085745Y-111626469D01*
X102083579Y-111626920D01*
X102016508Y-111640261D01*
X102016498Y-111640264D01*
X101870827Y-111700602D01*
X101870814Y-111700609D01*
X101739711Y-111788210D01*
X101739707Y-111788213D01*
X101628213Y-111899707D01*
X101628210Y-111899711D01*
X101540609Y-112030814D01*
X101540602Y-112030827D01*
X101480264Y-112176498D01*
X101480261Y-112176510D01*
X101449500Y-112331153D01*
X101449500Y-112488846D01*
X101480261Y-112643489D01*
X101480264Y-112643501D01*
X101540602Y-112789172D01*
X101540609Y-112789185D01*
X101628210Y-112920288D01*
X101628213Y-112920292D01*
X101739707Y-113031786D01*
X101739711Y-113031789D01*
X101870814Y-113119390D01*
X101870827Y-113119397D01*
X102016498Y-113179735D01*
X102016503Y-113179737D01*
X102117450Y-113199816D01*
X102179359Y-113232200D01*
X102213933Y-113292916D01*
X102210194Y-113362685D01*
X102180938Y-113409114D01*
X101867068Y-113722984D01*
X101805745Y-113756469D01*
X101803579Y-113756920D01*
X101736508Y-113770261D01*
X101736498Y-113770264D01*
X101590827Y-113830602D01*
X101590814Y-113830609D01*
X101459711Y-113918210D01*
X101459707Y-113918213D01*
X101348213Y-114029707D01*
X101348210Y-114029711D01*
X101260609Y-114160814D01*
X101260602Y-114160827D01*
X101200264Y-114306498D01*
X101200261Y-114306510D01*
X101169500Y-114461153D01*
X100500500Y-114461153D01*
X100500500Y-104868872D01*
X102999500Y-104868872D01*
X102999500Y-105131127D01*
X103020436Y-105290140D01*
X103033730Y-105391116D01*
X103055178Y-105471161D01*
X103101602Y-105644418D01*
X103101605Y-105644428D01*
X103201953Y-105886690D01*
X103201958Y-105886700D01*
X103333075Y-106113803D01*
X103492718Y-106321851D01*
X103492726Y-106321860D01*
X103678140Y-106507274D01*
X103678148Y-106507281D01*
X103886196Y-106666924D01*
X104113299Y-106798041D01*
X104113309Y-106798046D01*
X104355571Y-106898394D01*
X104355581Y-106898398D01*
X104608884Y-106966270D01*
X104868880Y-107000500D01*
X104868887Y-107000500D01*
X105131113Y-107000500D01*
X105131120Y-107000500D01*
X105391116Y-106966270D01*
X105644419Y-106898398D01*
X105886697Y-106798043D01*
X106113803Y-106666924D01*
X106321851Y-106507282D01*
X106321855Y-106507277D01*
X106321860Y-106507274D01*
X106507274Y-106321860D01*
X106507277Y-106321855D01*
X106507282Y-106321851D01*
X106666924Y-106113803D01*
X106798043Y-105886697D01*
X106898398Y-105644419D01*
X106966270Y-105391116D01*
X107000500Y-105131120D01*
X107000500Y-104868880D01*
X107000499Y-104868872D01*
X122999500Y-104868872D01*
X122999500Y-105131127D01*
X123020436Y-105290140D01*
X123033730Y-105391116D01*
X123055178Y-105471161D01*
X123101602Y-105644418D01*
X123101605Y-105644428D01*
X123201953Y-105886690D01*
X123201958Y-105886700D01*
X123333075Y-106113803D01*
X123492718Y-106321851D01*
X123492726Y-106321860D01*
X123678140Y-106507274D01*
X123678148Y-106507281D01*
X123886196Y-106666924D01*
X124113299Y-106798041D01*
X124113309Y-106798046D01*
X124355571Y-106898394D01*
X124355581Y-106898398D01*
X124608884Y-106966270D01*
X124868880Y-107000500D01*
X124868887Y-107000500D01*
X125131113Y-107000500D01*
X125131120Y-107000500D01*
X125391116Y-106966270D01*
X125644419Y-106898398D01*
X125886697Y-106798043D01*
X126113803Y-106666924D01*
X126321851Y-106507282D01*
X126321855Y-106507277D01*
X126321860Y-106507274D01*
X126507274Y-106321860D01*
X126507277Y-106321855D01*
X126507282Y-106321851D01*
X126666924Y-106113803D01*
X126798043Y-105886697D01*
X126898398Y-105644419D01*
X126966270Y-105391116D01*
X127000500Y-105131120D01*
X127000500Y-104868880D01*
X126966270Y-104608884D01*
X126898398Y-104355581D01*
X126800204Y-104118520D01*
X126798046Y-104113309D01*
X126798041Y-104113299D01*
X126666924Y-103886196D01*
X126507281Y-103678148D01*
X126507274Y-103678140D01*
X126321860Y-103492726D01*
X126321851Y-103492718D01*
X126113803Y-103333075D01*
X125886700Y-103201958D01*
X125886690Y-103201953D01*
X125644428Y-103101605D01*
X125644421Y-103101603D01*
X125644419Y-103101602D01*
X125391116Y-103033730D01*
X125333339Y-103026123D01*
X125131127Y-102999500D01*
X125131120Y-102999500D01*
X124868880Y-102999500D01*
X124868872Y-102999500D01*
X124637772Y-103029926D01*
X124608884Y-103033730D01*
X124355581Y-103101602D01*
X124355571Y-103101605D01*
X124113309Y-103201953D01*
X124113299Y-103201958D01*
X123886196Y-103333075D01*
X123678148Y-103492718D01*
X123492718Y-103678148D01*
X123333075Y-103886196D01*
X123201958Y-104113299D01*
X123201953Y-104113309D01*
X123101605Y-104355571D01*
X123101602Y-104355581D01*
X123033730Y-104608885D01*
X122999500Y-104868872D01*
X107000499Y-104868872D01*
X106966270Y-104608884D01*
X106898398Y-104355581D01*
X106800204Y-104118520D01*
X106798046Y-104113309D01*
X106798041Y-104113299D01*
X106666924Y-103886196D01*
X106507281Y-103678148D01*
X106507274Y-103678140D01*
X106321860Y-103492726D01*
X106321851Y-103492718D01*
X106113803Y-103333075D01*
X105886700Y-103201958D01*
X105886690Y-103201953D01*
X105644428Y-103101605D01*
X105644421Y-103101603D01*
X105644419Y-103101602D01*
X105391116Y-103033730D01*
X105333339Y-103026123D01*
X105131127Y-102999500D01*
X105131120Y-102999500D01*
X104868880Y-102999500D01*
X104868872Y-102999500D01*
X104637772Y-103029926D01*
X104608884Y-103033730D01*
X104355581Y-103101602D01*
X104355571Y-103101605D01*
X104113309Y-103201953D01*
X104113299Y-103201958D01*
X103886196Y-103333075D01*
X103678148Y-103492718D01*
X103492718Y-103678148D01*
X103333075Y-103886196D01*
X103201958Y-104113299D01*
X103201953Y-104113309D01*
X103101605Y-104355571D01*
X103101602Y-104355581D01*
X103033730Y-104608885D01*
X102999500Y-104868872D01*
X100500500Y-104868872D01*
X100500500Y-102793734D01*
X100500501Y-102784079D01*
X100500974Y-102782262D01*
X100500509Y-102719605D01*
X100500510Y-102719212D01*
X100500536Y-102719121D01*
X100500685Y-102712656D01*
X100514303Y-102457407D01*
X100516014Y-102442468D01*
X100557907Y-102205117D01*
X100559779Y-102194503D01*
X100563288Y-102179878D01*
X100569176Y-102160575D01*
X100636763Y-101939031D01*
X100642009Y-101924957D01*
X100744113Y-101694774D01*
X100751025Y-101681438D01*
X100880255Y-101465311D01*
X100888734Y-101452908D01*
X101043185Y-101254024D01*
X101053100Y-101242742D01*
X101142858Y-101152318D01*
X101230493Y-101064034D01*
X101241718Y-101054020D01*
X101246508Y-101050243D01*
X101439450Y-100898104D01*
X101451792Y-100889534D01*
X101666945Y-100758717D01*
X101680223Y-100751709D01*
X101909660Y-100647897D01*
X101923685Y-100642551D01*
X102164001Y-100567290D01*
X102178570Y-100563681D01*
X102426233Y-100518077D01*
X102441132Y-100516259D01*
X102696687Y-100500728D01*
X102704216Y-100500501D01*
X127206746Y-100510474D01*
G37*
%TD.AperFunction*%
%TD*%
M02*
