M48
; DRILL file {KiCad 9.0.1} date 2025-04-30T15:21:45+0530
; FORMAT={-:-/ absolute / inch / decimal}
; #@! TF.CreationDate,2025-04-30T15:21:45+05:30
; #@! TF.GenerationSoftware,Kicad,Pcbnew,9.0.1
; #@! TF.FileFunction,Plated,1,2,PTH
FMAT,2
INCH
; #@! TA.AperFunction,Plated,PTH,ViaDrill
T1C0.0118
; #@! TA.AperFunction,Plated,PTH,ComponentDrill
T2C0.0394
%
G90
G05
T1
X3.974Y-4.2152
X4.0146Y-4.5094
X4.0173Y-4.9605
X4.0209Y-4.6071
X4.0215Y-4.6825
X4.0236Y-4.35
X4.0244Y-4.7598
X4.0256Y-4.4256
X4.1319Y-4.6346
X4.1964Y-4.2051
X4.1967Y-4.2801
X4.2268Y-4.6453
X4.2317Y-4.2427
X4.2682Y-4.2051
X4.2685Y-4.2801
X4.3041Y-4.2051
X4.3126Y-4.65
X4.3169Y-4.0465
X4.3733Y-4.5954
X4.4055Y-4.6874
X4.4103Y-4.5658
X4.4449Y-4.382
X4.485Y-4.4353
X4.5248Y-4.4286
X4.5941Y-4.65
X4.7154Y-4.7476
X4.7571Y-4.8799
X4.8035Y-4.0469
X4.8035Y-4.9335
X4.814Y-4.2791
X4.8443Y-4.7348
X4.8488Y-4.8362
X4.8661Y-5.0429
X4.9237Y-4.7897
X4.9355Y-4.7143
X5.0133Y-4.7523
X5.0133Y-4.7897
X5.0248Y-5.0531
X5.0681Y-4.8524
T2
X4.2488Y-5.0374
X4.3488Y-5.0374
X4.4488Y-5.0374
X4.5488Y-5.0374
X4.6488Y-5.0374
X4.7488Y-5.0374
M30
